<svg width="20" height="20" viewBox="0 0 20 20" fill="none" xmlns="http://www.w3.org/2000/svg">
<path d="M18.8997 1.10016C18.1665 0.366766 17.2831 0 16.2502 0H3.7501C2.71721 0 1.83381 0.366766 1.10028 1.10016C0.366888 1.83369 0.00012207 2.71704 0.00012207 3.74998V16.2499C0.00012207 17.2828 0.366888 18.1662 1.10028 18.8997C1.83381 19.6333 2.71721 20 3.7501 20H16.2501C17.2829 20 18.1663 19.6333 18.8996 18.8997C19.6331 18.1662 19.9998 17.2828 19.9998 16.2499V3.74998C19.9998 2.71704 19.633 1.83356 18.8997 1.10016ZM15.2996 7.69538C15.3083 7.7735 15.3127 7.89048 15.3127 8.047C15.3127 8.7762 15.2063 9.50754 14.9937 10.2408C14.7811 10.9745 14.4555 11.6776 14.017 12.3503C13.5789 13.023 13.0559 13.6178 12.4483 14.1342C11.8406 14.6505 11.1115 15.063 10.2607 15.3709C9.4102 15.6793 8.49858 15.8335 7.52644 15.8335C6.01614 15.8335 4.61858 15.4252 3.33381 14.6096C3.54213 14.6355 3.75927 14.6486 3.98483 14.6486C5.24357 14.6486 6.37638 14.258 7.38337 13.4765C6.79318 13.4681 6.26574 13.2859 5.80138 12.9297C5.33688 12.5738 5.01362 12.1225 4.83129 11.5756C5.0569 11.6102 5.22615 11.6274 5.33898 11.6274C5.52993 11.6274 5.75135 11.5928 6.003 11.5235C5.36935 11.4018 4.83557 11.0874 4.40154 10.5796C3.96741 10.0717 3.75042 9.49231 3.75042 8.84133V8.81529C4.21036 9.03214 4.64439 9.14497 5.05243 9.15378C4.26249 8.62415 3.86754 7.86471 3.86754 6.87515C3.86754 6.38899 3.99332 5.92895 4.24506 5.49492C4.93076 6.33699 5.76426 7.00964 6.74502 7.51309C7.72587 8.01649 8.77632 8.29875 9.89605 8.35945C9.85272 8.19454 9.83097 7.98612 9.83097 7.73446C9.83097 6.97913 10.0979 6.33471 10.6318 5.8008C11.1655 5.26693 11.8101 4.99991 12.5652 4.99991C13.364 4.99991 14.0283 5.28645 14.5577 5.8594C15.1567 5.74657 15.7385 5.52511 16.3026 5.19538C16.0856 5.8636 15.6818 6.37147 15.0917 6.71872C15.6558 6.64046 16.1808 6.49297 16.6668 6.27597C16.3023 6.8315 15.8464 7.30458 15.2996 7.69538Z" fill="white"/>
</svg>
