<svg width="40" height="40" viewBox="0 0 40 40" fill="none" xmlns="http://www.w3.org/2000/svg">
<g clip-path="url(#clip0_976_6153)">
<path d="M6.25304 21.2534L3.76707 23.7393C3.08073 24.4257 3.08073 25.5386 3.76707 26.2253C4.45372 26.9116 5.5667 26.9116 6.25304 26.2253L8.739 23.7393C9.42564 23.0527 9.42564 21.9397 8.739 21.2534C8.05266 20.5667 6.93968 20.5667 6.25304 21.2534Z" fill="#FFC000"/>
<path d="M14.5395 29.5398L12.0535 32.0258C11.3672 32.7121 11.3672 33.8251 12.0535 34.5114C12.7399 35.1981 13.8528 35.1981 14.5395 34.5114L17.0254 32.0258C17.7118 31.3391 17.7118 30.2261 17.0254 29.5398C16.3388 28.8531 15.2261 28.8531 14.5395 29.5398Z" fill="#FFC000"/>
<path d="M20.34 36.9974L21.1685 36.1688C21.8551 35.4822 21.8551 34.3692 21.1685 33.6828C20.4822 32.9965 19.3692 32.9965 18.6825 33.6828L17.854 34.5114C17.1676 35.198 17.1676 36.311 17.854 36.9974C18.5403 37.684 19.6536 37.684 20.34 36.9974Z" fill="#FFC000"/>
<path d="M12.0535 23.7393L7.91046 27.8824C7.22382 28.569 7.22382 29.682 7.91046 30.3683C8.5968 31.0547 9.70978 31.0547 10.3961 30.3683L14.5395 26.2253C15.2258 25.5386 15.2258 24.4257 14.5395 23.7393C13.8528 23.0527 12.7402 23.0527 12.0535 23.7393Z" fill="#FFC000"/>
<path d="M14.9536 5.92346L11.9443 2.88239C11.4865 2.42462 10.7446 2.42462 10.2869 2.88239L0.343323 12.8259C-0.114441 13.2837 -0.114441 14.0256 0.343323 14.4833L2.37488 16.5463C3.01788 17.1896 3.5025 17.9736 3.79028 18.8367L4.18152 20.0104L4.59595 19.5959C6.19507 17.9971 8.7973 17.9971 10.3964 19.5959C10.903 20.1028 11.2308 20.7147 11.4163 21.3593C12.9605 20.56 14.9036 20.7886 16.1969 22.0819C17.4902 23.3752 17.7188 25.3183 16.9196 26.8628C17.5641 27.0483 18.176 27.3755 18.6829 27.8824C19.4946 28.6942 19.8898 29.7647 19.8773 30.831C20.9439 30.8188 22.0142 31.214 22.8259 32.0258C23.2336 32.4335 24.4833 33.6829 24.4833 33.6829C25.1697 34.3695 26.2827 34.3695 26.969 33.6829C27.6556 32.9965 27.6556 31.8835 26.969 31.1969L24.0689 28.2968C23.6111 27.8391 23.6111 27.0972 24.0689 26.6394C24.5267 26.1819 25.2686 26.1819 25.726 26.6394L28.6264 29.5398C29.3127 30.2261 30.426 30.2261 31.1124 29.5398C31.7987 28.8535 31.7987 27.7402 31.1124 27.0538L28.212 24.1534C27.7545 23.696 27.7545 22.9541 28.212 22.4963C28.6697 22.0386 29.4119 22.0386 29.8694 22.4963L32.7698 25.3964C33.4561 26.0828 34.5691 26.0828 35.2557 25.3964C35.9421 24.7101 35.9421 23.5971 35.2557 22.9108L28.1284 15.7834C25.8545 17.287 22.7551 17.0392 20.7544 15.0385C20.2972 14.5813 19.5544 14.5813 19.0973 15.0385C16.8127 17.323 13.0954 17.323 10.8109 15.0385C9.44 13.6679 9.44 11.4374 10.8109 10.0668L14.9536 5.92346Z" fill="#FFC000"/>
<path d="M29.7131 2.7652C29.2554 2.30743 28.5135 2.30743 28.0557 2.7652L25.5771 5.24384C25.1419 5.67902 24.5517 5.92346 23.9364 5.92346H19.7244C18.7921 5.92346 17.8979 6.29395 17.2388 6.95312L12.4679 11.7239C12.0038 12.1881 12.0038 12.9172 12.4679 13.3813C13.8434 14.7568 16.0641 14.7568 17.4396 13.3813C18.6792 12.1417 20.6216 12.023 21.9958 13.0252C23.844 14.3735 26.3086 14.4559 27.9263 12.8381L28.212 12.5525L36.2747 20.6152C36.3864 20.2023 36.3885 19.7653 36.2793 19.3597C36.0898 18.6569 36.3647 17.6581 36.8796 17.1432L39.6567 14.3661C40.1144 13.9084 40.1144 13.1665 39.6567 12.709L29.7131 2.7652Z" fill="#FFC000"/>
</g>
<defs>
<clipPath id="clip0_976_6153">
<rect width="40" height="40" fill="white"/>
</clipPath>
</defs>
</svg>
