<svg width="137" height="136" viewBox="0 0 137 136" fill="none" xmlns="http://www.w3.org/2000/svg">
<rect width="135.912" height="135.912" transform="translate(0.924393 0.0360107)" fill="white"/>
<path d="M7.71999 47.6052H3.18959V52.1356H7.71999V47.6052Z" fill="black"/>
<path d="M7.71999 52.1356H3.18959V56.666H7.71999V52.1356Z" fill="black"/>
<path d="M7.71999 83.8484H3.18959V88.3788H7.71999V83.8484Z" fill="black"/>
<path d="M7.71999 88.3788H3.18959V92.9092H7.71999V88.3788Z" fill="black"/>
<path d="M12.2504 38.5444H7.71999V43.0748H12.2504V38.5444Z" fill="black"/>
<path d="M12.2504 52.1356H7.71999V56.666H12.2504V52.1356Z" fill="black"/>
<path d="M12.2504 61.1964H7.71999V65.7268H12.2504V61.1964Z" fill="black"/>
<path d="M12.2504 65.7268H7.71999V70.2572H12.2504V65.7268Z" fill="black"/>
<path d="M12.2504 74.7876H7.71999V79.318H12.2504V74.7876Z" fill="black"/>
<path d="M12.2504 92.9092H7.71999V97.4396H12.2504V92.9092Z" fill="black"/>
<path d="M16.7808 43.0748H12.2504V47.6052H16.7808V43.0748Z" fill="black"/>
<path d="M16.7808 47.6052H12.2504V52.1356H16.7808V47.6052Z" fill="black"/>
<path d="M16.7808 52.1356H12.2504V56.666H16.7808V52.1356Z" fill="black"/>
<path d="M16.7808 61.1964H12.2504V65.7268H16.7808V61.1964Z" fill="black"/>
<path d="M16.7808 70.2572H12.2504V74.7876H16.7808V70.2572Z" fill="black"/>
<path d="M16.7808 74.7876H12.2504V79.318H16.7808V74.7876Z" fill="black"/>
<path d="M16.7808 92.9092H12.2504V97.4396H16.7808V92.9092Z" fill="black"/>
<path d="M21.3112 38.5444H16.7808V43.0748H21.3112V38.5444Z" fill="black"/>
<path d="M21.3112 43.0748H16.7808V47.6052H21.3112V43.0748Z" fill="black"/>
<path d="M21.3112 52.1356H16.7808V56.666H21.3112V52.1356Z" fill="black"/>
<path d="M21.3112 56.666H16.7808V61.1964H21.3112V56.666Z" fill="black"/>
<path d="M21.3112 65.7268H16.7808V70.2572H21.3112V65.7268Z" fill="black"/>
<path d="M21.3112 70.2572H16.7808V74.7876H21.3112V70.2572Z" fill="black"/>
<path d="M21.3112 79.318H16.7808V83.8484H21.3112V79.318Z" fill="black"/>
<path d="M21.3112 88.3788H16.7808V92.9092H21.3112V88.3788Z" fill="black"/>
<path d="M21.3112 92.9092H16.7808V97.4396H21.3112V92.9092Z" fill="black"/>
<path d="M25.8416 38.5444H21.3112V43.0748H25.8416V38.5444Z" fill="black"/>
<path d="M25.8416 43.0748H21.3112V47.6052H25.8416V43.0748Z" fill="black"/>
<path d="M25.8416 47.6052H21.3112V52.1356H25.8416V47.6052Z" fill="black"/>
<path d="M25.8416 52.1356H21.3112V56.666H25.8416V52.1356Z" fill="black"/>
<path d="M25.8416 70.2572H21.3112V74.7876H25.8416V70.2572Z" fill="black"/>
<path d="M25.8416 74.7876H21.3112V79.318H25.8416V74.7876Z" fill="black"/>
<path d="M25.8416 79.318H21.3112V83.8484H25.8416V79.318Z" fill="black"/>
<path d="M25.8416 88.3788H21.3112V92.9092H25.8416V88.3788Z" fill="black"/>
<path d="M25.8416 92.9092H21.3112V97.4396H25.8416V92.9092Z" fill="black"/>
<path d="M30.372 43.0748H25.8416V47.6052H30.372V43.0748Z" fill="black"/>
<path d="M30.372 47.6052H25.8416V52.1356H30.372V47.6052Z" fill="black"/>
<path d="M30.372 52.1356H25.8416V56.666H30.372V52.1356Z" fill="black"/>
<path d="M30.372 56.666H25.8416V61.1964H30.372V56.666Z" fill="black"/>
<path d="M30.372 65.7268H25.8416V70.2572H30.372V65.7268Z" fill="black"/>
<path d="M30.372 79.318H25.8416V83.8484H30.372V79.318Z" fill="black"/>
<path d="M30.372 83.8484H25.8416V88.3788H30.372V83.8484Z" fill="black"/>
<path d="M30.372 92.9092H25.8416V97.4396H30.372V92.9092Z" fill="black"/>
<path d="M34.9024 38.5444H30.372V43.0748H34.9024V38.5444Z" fill="black"/>
<path d="M34.9024 47.6052H30.372V52.1356H34.9024V47.6052Z" fill="black"/>
<path d="M34.9024 56.666H30.372V61.1964H34.9024V56.666Z" fill="black"/>
<path d="M34.9024 65.7268H30.372V70.2572H34.9024V65.7268Z" fill="black"/>
<path d="M34.9024 74.7876H30.372V79.318H34.9024V74.7876Z" fill="black"/>
<path d="M34.9024 83.8484H30.372V88.3788H34.9024V83.8484Z" fill="black"/>
<path d="M34.9024 92.9092H30.372V97.4396H34.9024V92.9092Z" fill="black"/>
<path d="M39.4328 38.5444H34.9024V43.0748H39.4328V38.5444Z" fill="black"/>
<path d="M39.4328 47.6052H34.9024V52.1356H39.4328V47.6052Z" fill="black"/>
<path d="M39.4328 52.1356H34.9024V56.666H39.4328V52.1356Z" fill="black"/>
<path d="M39.4328 70.2572H34.9024V74.7876H39.4328V70.2572Z" fill="black"/>
<path d="M39.4328 74.7876H34.9024V79.318H39.4328V74.7876Z" fill="black"/>
<path d="M39.4328 88.3788H34.9024V92.9092H39.4328V88.3788Z" fill="black"/>
<path d="M43.9632 6.83167H39.4328V11.3621H43.9632V6.83167Z" fill="black"/>
<path d="M43.9632 15.8925H39.4328V20.4229H43.9632V15.8925Z" fill="black"/>
<path d="M43.9632 20.4229H39.4328V24.9533H43.9632V20.4229Z" fill="black"/>
<path d="M43.9632 24.9532H39.4328V29.4836H43.9632V24.9532Z" fill="black"/>
<path d="M43.9632 29.4836H39.4328V34.014H43.9632V29.4836Z" fill="black"/>
<path d="M43.9632 38.5444H39.4328V43.0748H43.9632V38.5444Z" fill="black"/>
<path d="M43.9632 43.0748H39.4328V47.6052H43.9632V43.0748Z" fill="black"/>
<path d="M43.9632 56.666H39.4328V61.1964H43.9632V56.666Z" fill="black"/>
<path d="M43.9632 61.1964H39.4328V65.7268H43.9632V61.1964Z" fill="black"/>
<path d="M43.9632 70.2572H39.4328V74.7876H43.9632V70.2572Z" fill="black"/>
<path d="M43.9632 74.7876H39.4328V79.318H43.9632V74.7876Z" fill="black"/>
<path d="M43.9632 83.8484H39.4328V88.3788H43.9632V83.8484Z" fill="black"/>
<path d="M43.9632 88.3788H39.4328V92.9092H43.9632V88.3788Z" fill="black"/>
<path d="M43.9632 97.4397H39.4328V101.97H43.9632V97.4397Z" fill="black"/>
<path d="M43.9632 101.97H39.4328V106.5H43.9632V101.97Z" fill="black"/>
<path d="M43.9632 111.031H39.4328V115.561H43.9632V111.031Z" fill="black"/>
<path d="M43.9632 115.561H39.4328V120.092H43.9632V115.561Z" fill="black"/>
<path d="M43.9632 124.622H39.4328V129.152H43.9632V124.622Z" fill="black"/>
<path d="M48.4936 11.3621H43.9632V15.8925H48.4936V11.3621Z" fill="black"/>
<path d="M48.4936 24.9532H43.9632V29.4836H48.4936V24.9532Z" fill="black"/>
<path d="M48.4936 34.014H43.9632V38.5444H48.4936V34.014Z" fill="black"/>
<path d="M48.4936 43.0748H43.9632V47.6052H48.4936V43.0748Z" fill="black"/>
<path d="M48.4936 47.6052H43.9632V52.1356H48.4936V47.6052Z" fill="black"/>
<path d="M48.4936 52.1356H43.9632V56.666H48.4936V52.1356Z" fill="black"/>
<path d="M48.4936 56.666H43.9632V61.1964H48.4936V56.666Z" fill="black"/>
<path d="M48.4936 65.7268H43.9632V70.2572H48.4936V65.7268Z" fill="black"/>
<path d="M48.4936 70.2572H43.9632V74.7876H48.4936V70.2572Z" fill="black"/>
<path d="M48.4936 74.7876H43.9632V79.318H48.4936V74.7876Z" fill="black"/>
<path d="M48.4936 92.9092H43.9632V97.4396H48.4936V92.9092Z" fill="black"/>
<path d="M48.4936 101.97H43.9632V106.5H48.4936V101.97Z" fill="black"/>
<path d="M48.4936 106.5H43.9632V111.031H48.4936V106.5Z" fill="black"/>
<path d="M48.4936 111.031H43.9632V115.561H48.4936V111.031Z" fill="black"/>
<path d="M48.4936 115.561H43.9632V120.092H48.4936V115.561Z" fill="black"/>
<path d="M48.4936 124.622H43.9632V129.152H48.4936V124.622Z" fill="black"/>
<path d="M53.024 6.83167H48.4936V11.3621H53.024V6.83167Z" fill="black"/>
<path d="M53.024 15.8925H48.4936V20.4229H53.024V15.8925Z" fill="black"/>
<path d="M53.024 29.4836H48.4936V34.014H53.024V29.4836Z" fill="black"/>
<path d="M53.024 38.5444H48.4936V43.0748H53.024V38.5444Z" fill="black"/>
<path d="M53.024 43.0748H48.4936V47.6052H53.024V43.0748Z" fill="black"/>
<path d="M53.024 47.6052H48.4936V52.1356H53.024V47.6052Z" fill="black"/>
<path d="M53.024 61.1964H48.4936V65.7268H53.024V61.1964Z" fill="black"/>
<path d="M53.024 70.2572H48.4936V74.7876H53.024V70.2572Z" fill="black"/>
<path d="M53.024 74.7876H48.4936V79.318H53.024V74.7876Z" fill="black"/>
<path d="M53.024 79.318H48.4936V83.8484H53.024V79.318Z" fill="black"/>
<path d="M53.024 83.8484H48.4936V88.3788H53.024V83.8484Z" fill="black"/>
<path d="M53.024 97.4397H48.4936V101.97H53.024V97.4397Z" fill="black"/>
<path d="M53.024 101.97H48.4936V106.5H53.024V101.97Z" fill="black"/>
<path d="M53.024 106.5H48.4936V111.031H53.024V106.5Z" fill="black"/>
<path d="M53.024 111.031H48.4936V115.561H53.024V111.031Z" fill="black"/>
<path d="M53.024 115.561H48.4936V120.092H53.024V115.561Z" fill="black"/>
<path d="M57.5544 2.30127H53.024V6.83167H57.5544V2.30127Z" fill="black"/>
<path d="M57.5544 6.83167H53.024V11.3621H57.5544V6.83167Z" fill="black"/>
<path d="M57.5544 11.3621H53.024V15.8925H57.5544V11.3621Z" fill="black"/>
<path d="M57.5544 20.4229H53.024V24.9533H57.5544V20.4229Z" fill="black"/>
<path d="M57.5544 24.9532H53.024V29.4836H57.5544V24.9532Z" fill="black"/>
<path d="M57.5544 38.5444H53.024V43.0748H57.5544V38.5444Z" fill="black"/>
<path d="M57.5544 61.1964H53.024V65.7268H57.5544V61.1964Z" fill="black"/>
<path d="M57.5544 79.318H53.024V83.8484H57.5544V79.318Z" fill="black"/>
<path d="M57.5544 88.3788H53.024V92.9092H57.5544V88.3788Z" fill="black"/>
<path d="M57.5544 115.561H53.024V120.092H57.5544V115.561Z" fill="black"/>
<path d="M57.5544 129.152H53.024V133.683H57.5544V129.152Z" fill="black"/>
<path d="M62.0848 11.3621H57.5544V15.8925H62.0848V11.3621Z" fill="black"/>
<path d="M62.0848 15.8925H57.5544V20.4229H62.0848V15.8925Z" fill="black"/>
<path d="M62.0848 24.9532H57.5544V29.4836H62.0848V24.9532Z" fill="black"/>
<path d="M62.0848 29.4836H57.5544V34.014H62.0848V29.4836Z" fill="black"/>
<path d="M62.0848 34.014H57.5544V38.5444H62.0848V34.014Z" fill="black"/>
<path d="M62.0848 38.5444H57.5544V43.0748H62.0848V38.5444Z" fill="black"/>
<path d="M62.0848 43.0748H57.5544V47.6052H62.0848V43.0748Z" fill="black"/>
<path d="M62.0848 47.6052H57.5544V52.1356H62.0848V47.6052Z" fill="black"/>
<path d="M62.0848 61.1964H57.5544V65.7268H62.0848V61.1964Z" fill="black"/>
<path d="M62.0848 65.7268H57.5544V70.2572H62.0848V65.7268Z" fill="black"/>
<path d="M62.0848 92.9092H57.5544V97.4396H62.0848V92.9092Z" fill="black"/>
<path d="M62.0848 97.4397H57.5544V101.97H62.0848V97.4397Z" fill="black"/>
<path d="M62.0848 101.97H57.5544V106.5H62.0848V101.97Z" fill="black"/>
<path d="M62.0848 124.622H57.5544V129.152H62.0848V124.622Z" fill="black"/>
<path d="M66.6152 6.83167H62.0848V11.3621H66.6152V6.83167Z" fill="black"/>
<path d="M66.6152 24.9532H62.0848V29.4836H66.6152V24.9532Z" fill="black"/>
<path d="M66.6152 34.014H62.0848V38.5444H66.6152V34.014Z" fill="black"/>
<path d="M66.6152 38.5444H62.0848V43.0748H66.6152V38.5444Z" fill="black"/>
<path d="M66.6152 43.0748H62.0848V47.6052H66.6152V43.0748Z" fill="black"/>
<path d="M66.6152 61.1964H62.0848V65.7268H66.6152V61.1964Z" fill="black"/>
<path d="M66.6152 74.7876H62.0848V79.318H66.6152V74.7876Z" fill="black"/>
<path d="M66.6152 79.318H62.0848V83.8484H66.6152V79.318Z" fill="black"/>
<path d="M66.6152 101.97H62.0848V106.5H66.6152V101.97Z" fill="black"/>
<path d="M66.6152 111.031H62.0848V115.561H66.6152V111.031Z" fill="black"/>
<path d="M66.6152 120.092H62.0848V124.622H66.6152V120.092Z" fill="black"/>
<path d="M66.6152 129.152H62.0848V133.683H66.6152V129.152Z" fill="black"/>
<path d="M71.1456 6.83167H66.6152V11.3621H71.1456V6.83167Z" fill="black"/>
<path d="M71.1456 11.3621H66.6152V15.8925H71.1456V11.3621Z" fill="black"/>
<path d="M71.1456 20.4229H66.6152V24.9533H71.1456V20.4229Z" fill="black"/>
<path d="M71.1456 29.4836H66.6152V34.014H71.1456V29.4836Z" fill="black"/>
<path d="M71.1456 38.5444H66.6152V43.0748H71.1456V38.5444Z" fill="black"/>
<path d="M71.1456 52.1356H66.6152V56.666H71.1456V52.1356Z" fill="black"/>
<path d="M71.1456 56.666H66.6152V61.1964H71.1456V56.666Z" fill="black"/>
<path d="M71.1456 61.1964H66.6152V65.7268H71.1456V61.1964Z" fill="black"/>
<path d="M71.1456 70.2572H66.6152V74.7876H71.1456V70.2572Z" fill="black"/>
<path d="M71.1456 74.7876H66.6152V79.318H71.1456V74.7876Z" fill="black"/>
<path d="M71.1456 79.318H66.6152V83.8484H71.1456V79.318Z" fill="black"/>
<path d="M71.1456 88.3788H66.6152V92.9092H71.1456V88.3788Z" fill="black"/>
<path d="M71.1456 92.9092H66.6152V97.4396H71.1456V92.9092Z" fill="black"/>
<path d="M71.1456 106.5H66.6152V111.031H71.1456V106.5Z" fill="black"/>
<path d="M71.1456 115.561H66.6152V120.092H71.1456V115.561Z" fill="black"/>
<path d="M71.1456 124.622H66.6152V129.152H71.1456V124.622Z" fill="black"/>
<path d="M71.1456 129.152H66.6152V133.683H71.1456V129.152Z" fill="black"/>
<path d="M75.676 11.3621H71.1456V15.8925H75.676V11.3621Z" fill="black"/>
<path d="M75.676 15.8925H71.1456V20.4229H75.676V15.8925Z" fill="black"/>
<path d="M75.676 20.4229H71.1456V24.9533H75.676V20.4229Z" fill="black"/>
<path d="M75.676 34.014H71.1456V38.5444H75.676V34.014Z" fill="black"/>
<path d="M75.676 43.0748H71.1456V47.6052H75.676V43.0748Z" fill="black"/>
<path d="M75.676 47.6052H71.1456V52.1356H75.676V47.6052Z" fill="black"/>
<path d="M75.676 56.666H71.1456V61.1964H75.676V56.666Z" fill="black"/>
<path d="M75.676 61.1964H71.1456V65.7268H75.676V61.1964Z" fill="black"/>
<path d="M75.676 70.2572H71.1456V74.7876H75.676V70.2572Z" fill="black"/>
<path d="M75.676 74.7876H71.1456V79.318H75.676V74.7876Z" fill="black"/>
<path d="M75.676 79.318H71.1456V83.8484H75.676V79.318Z" fill="black"/>
<path d="M75.676 83.8484H71.1456V88.3788H75.676V83.8484Z" fill="black"/>
<path d="M75.676 97.4397H71.1456V101.97H75.676V97.4397Z" fill="black"/>
<path d="M75.676 111.031H71.1456V115.561H75.676V111.031Z" fill="black"/>
<path d="M75.676 115.561H71.1456V120.092H75.676V115.561Z" fill="black"/>
<path d="M75.676 120.092H71.1456V124.622H75.676V120.092Z" fill="black"/>
<path d="M75.676 124.622H71.1456V129.152H75.676V124.622Z" fill="black"/>
<path d="M75.676 129.152H71.1456V133.683H75.676V129.152Z" fill="black"/>
<path d="M80.2064 6.83167H75.676V11.3621H80.2064V6.83167Z" fill="black"/>
<path d="M80.2064 11.3621H75.676V15.8925H80.2064V11.3621Z" fill="black"/>
<path d="M80.2064 20.4229H75.676V24.9533H80.2064V20.4229Z" fill="black"/>
<path d="M80.2064 29.4836H75.676V34.014H80.2064V29.4836Z" fill="black"/>
<path d="M80.2064 34.014H75.676V38.5444H80.2064V34.014Z" fill="black"/>
<path d="M80.2064 74.7876H75.676V79.318H80.2064V74.7876Z" fill="black"/>
<path d="M80.2064 79.318H75.676V83.8484H80.2064V79.318Z" fill="black"/>
<path d="M80.2064 88.3788H75.676V92.9092H80.2064V88.3788Z" fill="black"/>
<path d="M80.2064 92.9092H75.676V97.4396H80.2064V92.9092Z" fill="black"/>
<path d="M80.2064 106.5H75.676V111.031H80.2064V106.5Z" fill="black"/>
<path d="M80.2064 115.561H75.676V120.092H80.2064V115.561Z" fill="black"/>
<path d="M80.2064 129.152H75.676V133.683H80.2064V129.152Z" fill="black"/>
<path d="M84.7368 2.30127H80.2064V6.83167H84.7368V2.30127Z" fill="black"/>
<path d="M84.7368 15.8925H80.2064V20.4229H84.7368V15.8925Z" fill="black"/>
<path d="M84.7368 38.5444H80.2064V43.0748H84.7368V38.5444Z" fill="black"/>
<path d="M84.7368 56.666H80.2064V61.1964H84.7368V56.666Z" fill="black"/>
<path d="M84.7368 74.7876H80.2064V79.318H84.7368V74.7876Z" fill="black"/>
<path d="M84.7368 79.318H80.2064V83.8484H84.7368V79.318Z" fill="black"/>
<path d="M84.7368 83.8484H80.2064V88.3788H84.7368V83.8484Z" fill="black"/>
<path d="M84.7368 88.3788H80.2064V92.9092H84.7368V88.3788Z" fill="black"/>
<path d="M84.7368 92.9092H80.2064V97.4396H84.7368V92.9092Z" fill="black"/>
<path d="M84.7368 111.031H80.2064V115.561H84.7368V111.031Z" fill="black"/>
<path d="M84.7368 115.561H80.2064V120.092H84.7368V115.561Z" fill="black"/>
<path d="M89.2672 2.30127H84.7368V6.83167H89.2672V2.30127Z" fill="black"/>
<path d="M89.2672 6.83167H84.7368V11.3621H89.2672V6.83167Z" fill="black"/>
<path d="M89.2672 20.4229H84.7368V24.9533H89.2672V20.4229Z" fill="black"/>
<path d="M89.2672 24.9532H84.7368V29.4836H89.2672V24.9532Z" fill="black"/>
<path d="M89.2672 29.4836H84.7368V34.014H89.2672V29.4836Z" fill="black"/>
<path d="M89.2672 34.014H84.7368V38.5444H89.2672V34.014Z" fill="black"/>
<path d="M89.2672 56.666H84.7368V61.1964H89.2672V56.666Z" fill="black"/>
<path d="M89.2672 65.7268H84.7368V70.2572H89.2672V65.7268Z" fill="black"/>
<path d="M89.2672 70.2572H84.7368V74.7876H89.2672V70.2572Z" fill="black"/>
<path d="M89.2672 83.8484H84.7368V88.3788H89.2672V83.8484Z" fill="black"/>
<path d="M89.2672 88.3788H84.7368V92.9092H89.2672V88.3788Z" fill="black"/>
<path d="M89.2672 129.152H84.7368V133.683H89.2672V129.152Z" fill="black"/>
<path d="M93.7975 2.30127H89.2672V6.83167H93.7975V2.30127Z" fill="black"/>
<path d="M93.7975 6.83167H89.2672V11.3621H93.7975V6.83167Z" fill="black"/>
<path d="M93.7975 24.9532H89.2672V29.4836H93.7975V24.9532Z" fill="black"/>
<path d="M93.7975 38.5444H89.2672V43.0748H93.7975V38.5444Z" fill="black"/>
<path d="M93.7975 43.0748H89.2672V47.6052H93.7975V43.0748Z" fill="black"/>
<path d="M93.7975 47.6052H89.2672V52.1356H93.7975V47.6052Z" fill="black"/>
<path d="M93.7975 52.1356H89.2672V56.666H93.7975V52.1356Z" fill="black"/>
<path d="M93.7975 65.7268H89.2672V70.2572H93.7975V65.7268Z" fill="black"/>
<path d="M93.7975 83.8484H89.2672V88.3788H93.7975V83.8484Z" fill="black"/>
<path d="M93.7975 88.3788H89.2672V92.9092H93.7975V88.3788Z" fill="black"/>
<path d="M93.7975 92.9092H89.2672V97.4396H93.7975V92.9092Z" fill="black"/>
<path d="M93.7975 97.4397H89.2672V101.97H93.7975V97.4397Z" fill="black"/>
<path d="M93.7975 101.97H89.2672V106.5H93.7975V101.97Z" fill="black"/>
<path d="M93.7975 106.5H89.2672V111.031H93.7975V106.5Z" fill="black"/>
<path d="M93.7975 111.031H89.2672V115.561H93.7975V111.031Z" fill="black"/>
<path d="M93.7975 120.092H89.2672V124.622H93.7975V120.092Z" fill="black"/>
<path d="M93.7975 129.152H89.2672V133.683H93.7975V129.152Z" fill="black"/>
<path d="M98.328 2.30127H93.7976V6.83167H98.328V2.30127Z" fill="black"/>
<path d="M98.328 6.83167H93.7976V11.3621H98.328V6.83167Z" fill="black"/>
<path d="M98.328 15.8925H93.7976V20.4229H98.328V15.8925Z" fill="black"/>
<path d="M98.328 24.9532H93.7976V29.4836H98.328V24.9532Z" fill="black"/>
<path d="M98.328 29.4836H93.7976V34.014H98.328V29.4836Z" fill="black"/>
<path d="M98.328 38.5444H93.7976V43.0748H98.328V38.5444Z" fill="black"/>
<path d="M98.328 43.0748H93.7976V47.6052H98.328V43.0748Z" fill="black"/>
<path d="M98.328 56.666H93.7976V61.1964H98.328V56.666Z" fill="black"/>
<path d="M98.328 61.1964H93.7976V65.7268H98.328V61.1964Z" fill="black"/>
<path d="M98.328 65.7268H93.7976V70.2572H98.328V65.7268Z" fill="black"/>
<path d="M98.328 70.2572H93.7976V74.7876H98.328V70.2572Z" fill="black"/>
<path d="M98.328 74.7876H93.7976V79.318H98.328V74.7876Z" fill="black"/>
<path d="M98.328 79.318H93.7976V83.8484H98.328V79.318Z" fill="black"/>
<path d="M98.328 83.8484H93.7976V88.3788H98.328V83.8484Z" fill="black"/>
<path d="M98.328 92.9092H93.7976V97.4396H98.328V92.9092Z" fill="black"/>
<path d="M98.328 97.4397H93.7976V101.97H98.328V97.4397Z" fill="black"/>
<path d="M98.328 101.97H93.7976V106.5H98.328V101.97Z" fill="black"/>
<path d="M98.328 106.5H93.7976V111.031H98.328V106.5Z" fill="black"/>
<path d="M98.328 111.031H93.7976V115.561H98.328V111.031Z" fill="black"/>
<path d="M98.328 120.092H93.7976V124.622H98.328V120.092Z" fill="black"/>
<path d="M98.328 124.622H93.7976V129.152H98.328V124.622Z" fill="black"/>
<path d="M102.858 38.5444H98.328V43.0748H102.858V38.5444Z" fill="black"/>
<path d="M102.858 43.0748H98.328V47.6052H102.858V43.0748Z" fill="black"/>
<path d="M102.858 56.666H98.328V61.1964H102.858V56.666Z" fill="black"/>
<path d="M102.858 61.1964H98.328V65.7268H102.858V61.1964Z" fill="black"/>
<path d="M102.858 65.7268H98.328V70.2572H102.858V65.7268Z" fill="black"/>
<path d="M102.858 70.2572H98.328V74.7876H102.858V70.2572Z" fill="black"/>
<path d="M102.858 83.8484H98.328V88.3788H102.858V83.8484Z" fill="black"/>
<path d="M102.858 92.9092H98.328V97.4396H102.858V92.9092Z" fill="black"/>
<path d="M102.858 111.031H98.328V115.561H102.858V111.031Z" fill="black"/>
<path d="M102.858 115.561H98.328V120.092H102.858V115.561Z" fill="black"/>
<path d="M102.858 120.092H98.328V124.622H102.858V120.092Z" fill="black"/>
<path d="M107.389 43.0748H102.858V47.6052H107.389V43.0748Z" fill="black"/>
<path d="M107.389 52.1356H102.858V56.666H107.389V52.1356Z" fill="black"/>
<path d="M107.389 70.2572H102.858V74.7876H107.389V70.2572Z" fill="black"/>
<path d="M107.389 74.7876H102.858V79.318H107.389V74.7876Z" fill="black"/>
<path d="M107.389 79.318H102.858V83.8484H107.389V79.318Z" fill="black"/>
<path d="M107.389 83.8484H102.858V88.3788H107.389V83.8484Z" fill="black"/>
<path d="M107.389 88.3788H102.858V92.9092H107.389V88.3788Z" fill="black"/>
<path d="M107.389 92.9092H102.858V97.4396H107.389V92.9092Z" fill="black"/>
<path d="M107.389 101.97H102.858V106.5H107.389V101.97Z" fill="black"/>
<path d="M107.389 111.031H102.858V115.561H107.389V111.031Z" fill="black"/>
<path d="M107.389 120.092H102.858V124.622H107.389V120.092Z" fill="black"/>
<path d="M111.919 38.5444H107.389V43.0748H111.919V38.5444Z" fill="black"/>
<path d="M111.919 43.0748H107.389V47.6052H111.919V43.0748Z" fill="black"/>
<path d="M111.919 47.6052H107.389V52.1356H111.919V47.6052Z" fill="black"/>
<path d="M111.919 52.1356H107.389V56.666H111.919V52.1356Z" fill="black"/>
<path d="M111.919 65.7268H107.389V70.2572H111.919V65.7268Z" fill="black"/>
<path d="M111.919 70.2572H107.389V74.7876H111.919V70.2572Z" fill="black"/>
<path d="M111.919 74.7876H107.389V79.318H111.919V74.7876Z" fill="black"/>
<path d="M111.919 79.318H107.389V83.8484H111.919V79.318Z" fill="black"/>
<path d="M111.919 88.3788H107.389V92.9092H111.919V88.3788Z" fill="black"/>
<path d="M111.919 92.9092H107.389V97.4396H111.919V92.9092Z" fill="black"/>
<path d="M111.919 111.031H107.389V115.561H111.919V111.031Z" fill="black"/>
<path d="M111.919 115.561H107.389V120.092H111.919V115.561Z" fill="black"/>
<path d="M111.919 124.622H107.389V129.152H111.919V124.622Z" fill="black"/>
<path d="M116.45 38.5444H111.919V43.0748H116.45V38.5444Z" fill="black"/>
<path d="M116.45 47.6052H111.919V52.1356H116.45V47.6052Z" fill="black"/>
<path d="M116.45 56.666H111.919V61.1964H116.45V56.666Z" fill="black"/>
<path d="M116.45 61.1964H111.919V65.7268H116.45V61.1964Z" fill="black"/>
<path d="M116.45 65.7268H111.919V70.2572H116.45V65.7268Z" fill="black"/>
<path d="M116.45 70.2572H111.919V74.7876H116.45V70.2572Z" fill="black"/>
<path d="M116.45 74.7876H111.919V79.318H116.45V74.7876Z" fill="black"/>
<path d="M116.45 79.318H111.919V83.8484H116.45V79.318Z" fill="black"/>
<path d="M116.45 83.8484H111.919V88.3788H116.45V83.8484Z" fill="black"/>
<path d="M116.45 88.3788H111.919V92.9092H116.45V88.3788Z" fill="black"/>
<path d="M116.45 92.9092H111.919V97.4396H116.45V92.9092Z" fill="black"/>
<path d="M116.45 97.4397H111.919V101.97H116.45V97.4397Z" fill="black"/>
<path d="M116.45 101.97H111.919V106.5H116.45V101.97Z" fill="black"/>
<path d="M116.45 106.5H111.919V111.031H116.45V106.5Z" fill="black"/>
<path d="M116.45 111.031H111.919V115.561H116.45V111.031Z" fill="black"/>
<path d="M120.98 38.5444H116.45V43.0748H120.98V38.5444Z" fill="black"/>
<path d="M120.98 56.666H116.45V61.1964H120.98V56.666Z" fill="black"/>
<path d="M120.98 61.1964H116.45V65.7268H120.98V61.1964Z" fill="black"/>
<path d="M120.98 65.7268H116.45V70.2572H120.98V65.7268Z" fill="black"/>
<path d="M120.98 74.7876H116.45V79.318H120.98V74.7876Z" fill="black"/>
<path d="M120.98 79.318H116.45V83.8484H120.98V79.318Z" fill="black"/>
<path d="M120.98 106.5H116.45V111.031H120.98V106.5Z" fill="black"/>
<path d="M120.98 115.561H116.45V120.092H120.98V115.561Z" fill="black"/>
<path d="M120.98 120.092H116.45V124.622H120.98V120.092Z" fill="black"/>
<path d="M120.98 124.622H116.45V129.152H120.98V124.622Z" fill="black"/>
<path d="M125.51 47.6052H120.98V52.1356H125.51V47.6052Z" fill="black"/>
<path d="M125.51 52.1356H120.98V56.666H125.51V52.1356Z" fill="black"/>
<path d="M125.51 65.7268H120.98V70.2572H125.51V65.7268Z" fill="black"/>
<path d="M125.51 74.7876H120.98V79.318H125.51V74.7876Z" fill="black"/>
<path d="M125.51 79.318H120.98V83.8484H125.51V79.318Z" fill="black"/>
<path d="M125.51 92.9092H120.98V97.4396H125.51V92.9092Z" fill="black"/>
<path d="M125.51 97.4397H120.98V101.97H125.51V97.4397Z" fill="black"/>
<path d="M125.51 106.5H120.98V111.031H125.51V106.5Z" fill="black"/>
<path d="M125.51 111.031H120.98V115.561H125.51V111.031Z" fill="black"/>
<path d="M125.51 120.092H120.98V124.622H125.51V120.092Z" fill="black"/>
<path d="M125.51 124.622H120.98V129.152H125.51V124.622Z" fill="black"/>
<path d="M125.51 129.152H120.98V133.683H125.51V129.152Z" fill="black"/>
<path d="M130.041 38.5444H125.51V43.0748H130.041V38.5444Z" fill="black"/>
<path d="M130.041 52.1356H125.51V56.666H130.041V52.1356Z" fill="black"/>
<path d="M130.041 70.2572H125.51V74.7876H130.041V70.2572Z" fill="black"/>
<path d="M130.041 83.8484H125.51V88.3788H130.041V83.8484Z" fill="black"/>
<path d="M130.041 88.3788H125.51V92.9092H130.041V88.3788Z" fill="black"/>
<path d="M130.041 97.4397H125.51V101.97H130.041V97.4397Z" fill="black"/>
<path d="M130.041 111.031H125.51V115.561H130.041V111.031Z" fill="black"/>
<path d="M130.041 115.561H125.51V120.092H130.041V115.561Z" fill="black"/>
<path d="M130.041 120.092H125.51V124.622H130.041V120.092Z" fill="black"/>
<path d="M130.041 129.152H125.51V133.683H130.041V129.152Z" fill="black"/>
<path d="M134.571 47.6052H130.041V52.1356H134.571V47.6052Z" fill="black"/>
<path d="M134.571 52.1356H130.041V56.666H134.571V52.1356Z" fill="black"/>
<path d="M134.571 92.9092H130.041V97.4396H134.571V92.9092Z" fill="black"/>
<path d="M134.571 106.5H130.041V111.031H134.571V106.5Z" fill="black"/>
<path d="M134.571 111.031H130.041V115.561H134.571V111.031Z" fill="black"/>
<path d="M134.571 115.561H130.041V120.092H134.571V115.561Z" fill="black"/>
<path d="M7.71999 2.30127H3.18959V6.83167H7.71999V2.30127Z" fill="black"/>
<path d="M7.71999 6.83167H3.18959V11.3621H7.71999V6.83167Z" fill="black"/>
<path d="M7.71999 11.3621H3.18959V15.8925H7.71999V11.3621Z" fill="black"/>
<path d="M7.71999 15.8925H3.18959V20.4229H7.71999V15.8925Z" fill="black"/>
<path d="M7.71999 20.4229H3.18959V24.9533H7.71999V20.4229Z" fill="black"/>
<path d="M7.71999 24.9532H3.18959V29.4836H7.71999V24.9532Z" fill="black"/>
<path d="M7.71999 29.4836H3.18959V34.014H7.71999V29.4836Z" fill="black"/>
<path d="M12.2504 2.30127H7.71999V6.83167H12.2504V2.30127Z" fill="black"/>
<path d="M12.2504 29.4836H7.71999V34.014H12.2504V29.4836Z" fill="black"/>
<path d="M16.7808 2.30127H12.2504V6.83167H16.7808V2.30127Z" fill="black"/>
<path d="M16.7808 29.4836H12.2504V34.014H16.7808V29.4836Z" fill="black"/>
<path d="M21.3112 2.30127H16.7808V6.83167H21.3112V2.30127Z" fill="black"/>
<path d="M21.3112 29.4836H16.7808V34.014H21.3112V29.4836Z" fill="black"/>
<path d="M25.8416 2.30127H21.3112V6.83167H25.8416V2.30127Z" fill="black"/>
<path d="M25.8416 29.4836H21.3112V34.014H25.8416V29.4836Z" fill="black"/>
<path d="M30.372 2.30127H25.8416V6.83167H30.372V2.30127Z" fill="black"/>
<path d="M30.372 29.4836H25.8416V34.014H30.372V29.4836Z" fill="black"/>
<path d="M34.9024 2.30127H30.372V6.83167H34.9024V2.30127Z" fill="black"/>
<path d="M34.9024 6.83167H30.372V11.3621H34.9024V6.83167Z" fill="black"/>
<path d="M34.9024 11.3621H30.372V15.8925H34.9024V11.3621Z" fill="black"/>
<path d="M34.9024 15.8925H30.372V20.4229H34.9024V15.8925Z" fill="black"/>
<path d="M34.9024 20.4229H30.372V24.9533H34.9024V20.4229Z" fill="black"/>
<path d="M34.9024 24.9532H30.372V29.4836H34.9024V24.9532Z" fill="black"/>
<path d="M34.9024 29.4836H30.372V34.014H34.9024V29.4836Z" fill="black"/>
<path d="M16.7808 11.3621H12.2504V15.8925H16.7808V11.3621Z" fill="black"/>
<path d="M16.7808 15.8925H12.2504V20.4229H16.7808V15.8925Z" fill="black"/>
<path d="M16.7808 20.4229H12.2504V24.9533H16.7808V20.4229Z" fill="black"/>
<path d="M21.3112 11.3621H16.7808V15.8925H21.3112V11.3621Z" fill="black"/>
<path d="M21.3112 15.8925H16.7808V20.4229H21.3112V15.8925Z" fill="black"/>
<path d="M21.3112 20.4229H16.7808V24.9533H21.3112V20.4229Z" fill="black"/>
<path d="M25.8416 11.3621H21.3112V15.8925H25.8416V11.3621Z" fill="black"/>
<path d="M25.8416 15.8925H21.3112V20.4229H25.8416V15.8925Z" fill="black"/>
<path d="M25.8416 20.4229H21.3112V24.9533H25.8416V20.4229Z" fill="black"/>
<path d="M107.389 2.30127H102.858V6.83167H107.389V2.30127Z" fill="black"/>
<path d="M107.389 6.83167H102.858V11.3621H107.389V6.83167Z" fill="black"/>
<path d="M107.389 11.3621H102.858V15.8925H107.389V11.3621Z" fill="black"/>
<path d="M107.389 15.8925H102.858V20.4229H107.389V15.8925Z" fill="black"/>
<path d="M107.389 20.4229H102.858V24.9533H107.389V20.4229Z" fill="black"/>
<path d="M107.389 24.9532H102.858V29.4836H107.389V24.9532Z" fill="black"/>
<path d="M107.389 29.4836H102.858V34.014H107.389V29.4836Z" fill="black"/>
<path d="M111.919 2.30127H107.389V6.83167H111.919V2.30127Z" fill="black"/>
<path d="M111.919 29.4836H107.389V34.014H111.919V29.4836Z" fill="black"/>
<path d="M116.45 2.30127H111.919V6.83167H116.45V2.30127Z" fill="black"/>
<path d="M116.45 29.4836H111.919V34.014H116.45V29.4836Z" fill="black"/>
<path d="M120.98 2.30127H116.45V6.83167H120.98V2.30127Z" fill="black"/>
<path d="M120.98 29.4836H116.45V34.014H120.98V29.4836Z" fill="black"/>
<path d="M125.51 2.30127H120.98V6.83167H125.51V2.30127Z" fill="black"/>
<path d="M125.51 29.4836H120.98V34.014H125.51V29.4836Z" fill="black"/>
<path d="M130.041 2.30127H125.51V6.83167H130.041V2.30127Z" fill="black"/>
<path d="M130.041 29.4836H125.51V34.014H130.041V29.4836Z" fill="black"/>
<path d="M134.571 2.30127H130.041V6.83167H134.571V2.30127Z" fill="black"/>
<path d="M134.571 6.83167H130.041V11.3621H134.571V6.83167Z" fill="black"/>
<path d="M134.571 11.3621H130.041V15.8925H134.571V11.3621Z" fill="black"/>
<path d="M134.571 15.8925H130.041V20.4229H134.571V15.8925Z" fill="black"/>
<path d="M134.571 20.4229H130.041V24.9533H134.571V20.4229Z" fill="black"/>
<path d="M134.571 24.9532H130.041V29.4836H134.571V24.9532Z" fill="black"/>
<path d="M134.571 29.4836H130.041V34.014H134.571V29.4836Z" fill="black"/>
<path d="M116.45 11.3621H111.919V15.8925H116.45V11.3621Z" fill="black"/>
<path d="M116.45 15.8925H111.919V20.4229H116.45V15.8925Z" fill="black"/>
<path d="M116.45 20.4229H111.919V24.9533H116.45V20.4229Z" fill="black"/>
<path d="M120.98 11.3621H116.45V15.8925H120.98V11.3621Z" fill="black"/>
<path d="M120.98 15.8925H116.45V20.4229H120.98V15.8925Z" fill="black"/>
<path d="M120.98 20.4229H116.45V24.9533H120.98V20.4229Z" fill="black"/>
<path d="M125.51 11.3621H120.98V15.8925H125.51V11.3621Z" fill="black"/>
<path d="M125.51 15.8925H120.98V20.4229H125.51V15.8925Z" fill="black"/>
<path d="M125.51 20.4229H120.98V24.9533H125.51V20.4229Z" fill="black"/>
<path d="M7.71999 101.97H3.18959V106.5H7.71999V101.97Z" fill="black"/>
<path d="M7.71999 106.5H3.18959V111.031H7.71999V106.5Z" fill="black"/>
<path d="M7.71999 111.031H3.18959V115.561H7.71999V111.031Z" fill="black"/>
<path d="M7.71999 115.561H3.18959V120.092H7.71999V115.561Z" fill="black"/>
<path d="M7.71999 120.092H3.18959V124.622H7.71999V120.092Z" fill="black"/>
<path d="M7.71999 124.622H3.18959V129.152H7.71999V124.622Z" fill="black"/>
<path d="M7.71999 129.152H3.18959V133.683H7.71999V129.152Z" fill="black"/>
<path d="M12.2504 101.97H7.71999V106.5H12.2504V101.97Z" fill="black"/>
<path d="M12.2504 129.152H7.71999V133.683H12.2504V129.152Z" fill="black"/>
<path d="M16.7808 101.97H12.2504V106.5H16.7808V101.97Z" fill="black"/>
<path d="M16.7808 129.152H12.2504V133.683H16.7808V129.152Z" fill="black"/>
<path d="M21.3112 101.97H16.7808V106.5H21.3112V101.97Z" fill="black"/>
<path d="M21.3112 129.152H16.7808V133.683H21.3112V129.152Z" fill="black"/>
<path d="M25.8416 101.97H21.3112V106.5H25.8416V101.97Z" fill="black"/>
<path d="M25.8416 129.152H21.3112V133.683H25.8416V129.152Z" fill="black"/>
<path d="M30.372 101.97H25.8416V106.5H30.372V101.97Z" fill="black"/>
<path d="M30.372 129.152H25.8416V133.683H30.372V129.152Z" fill="black"/>
<path d="M34.9024 101.97H30.372V106.5H34.9024V101.97Z" fill="black"/>
<path d="M34.9024 106.5H30.372V111.031H34.9024V106.5Z" fill="black"/>
<path d="M34.9024 111.031H30.372V115.561H34.9024V111.031Z" fill="black"/>
<path d="M34.9024 115.561H30.372V120.092H34.9024V115.561Z" fill="black"/>
<path d="M34.9024 120.092H30.372V124.622H34.9024V120.092Z" fill="black"/>
<path d="M34.9024 124.622H30.372V129.152H34.9024V124.622Z" fill="black"/>
<path d="M34.9024 129.152H30.372V133.683H34.9024V129.152Z" fill="black"/>
<path d="M16.7808 111.031H12.2504V115.561H16.7808V111.031Z" fill="black"/>
<path d="M16.7808 115.561H12.2504V120.092H16.7808V115.561Z" fill="black"/>
<path d="M16.7808 120.092H12.2504V124.622H16.7808V120.092Z" fill="black"/>
<path d="M21.3112 111.031H16.7808V115.561H21.3112V111.031Z" fill="black"/>
<path d="M21.3112 115.561H16.7808V120.092H21.3112V115.561Z" fill="black"/>
<path d="M21.3112 120.092H16.7808V124.622H21.3112V120.092Z" fill="black"/>
<path d="M25.8416 111.031H21.3112V115.561H25.8416V111.031Z" fill="black"/>
<path d="M25.8416 115.561H21.3112V120.092H25.8416V115.561Z" fill="black"/>
<path d="M25.8416 120.092H21.3112V124.622H25.8416V120.092Z" fill="black"/>
</svg>
