<svg width="20" height="20" viewBox="0 0 20 20" fill="none" xmlns="http://www.w3.org/2000/svg">
<path fill-rule="evenodd" clip-rule="evenodd" d="M13.75 19.375H17.5C18.5356 19.375 19.375 18.5356 19.375 17.5V13.75C19.375 13.405 19.095 13.125 18.75 13.125C18.405 13.125 18.125 13.405 18.125 13.75V17.5C18.125 17.845 17.845 18.125 17.5 18.125H13.75C13.405 18.125 13.125 18.405 13.125 18.75C13.125 19.095 13.405 19.375 13.75 19.375ZM6.25 18.125H2.5C2.155 18.125 1.875 17.845 1.875 17.5V13.75C1.875 13.405 1.595 13.125 1.25 13.125C0.905 13.125 0.625 13.405 0.625 13.75V17.5C0.625 18.5356 1.46438 19.375 2.5 19.375H6.25C6.595 19.375 6.875 19.095 6.875 18.75C6.875 18.405 6.595 18.125 6.25 18.125ZM9.375 12.5V16.25C9.375 16.595 9.655 16.875 10 16.875C10.345 16.875 10.625 16.595 10.625 16.25V12.5C10.625 12.155 10.345 11.875 10 11.875C9.655 11.875 9.375 12.155 9.375 12.5ZM8.125 12.5C8.125 12.155 7.845 11.875 7.5 11.875H3.75C3.405 11.875 3.125 12.155 3.125 12.5V16.25C3.125 16.595 3.405 16.875 3.75 16.875H7.5C7.845 16.875 8.125 16.595 8.125 16.25V12.5ZM16.875 12.5C16.875 12.155 16.595 11.875 16.25 11.875H12.5C12.155 11.875 11.875 12.155 11.875 12.5V16.25C11.875 16.595 12.155 16.875 12.5 16.875H16.25C16.595 16.875 16.875 16.595 16.875 16.25V12.5ZM6.875 13.125V15.625H4.375V13.125H6.875ZM15.625 13.125V15.625H13.125V13.125H15.625ZM9.375 10.625H10C10.345 10.625 10.625 10.345 10.625 10C10.625 9.655 10.345 9.375 10 9.375H9.375C9.03 9.375 8.75 9.655 8.75 10C8.75 10.345 9.03 10.625 9.375 10.625ZM3.75 10.625H6.875C7.22 10.625 7.5 10.345 7.5 10C7.5 9.655 7.22 9.375 6.875 9.375H3.75C3.405 9.375 3.125 9.655 3.125 10C3.125 10.345 3.405 10.625 3.75 10.625ZM15 9.375H15.625V10C15.625 10.345 15.905 10.625 16.25 10.625C16.595 10.625 16.875 10.345 16.875 10V8.75C16.875 8.405 16.595 8.125 16.25 8.125H15C14.655 8.125 14.375 8.405 14.375 8.75C14.375 9.095 14.655 9.375 15 9.375ZM13.125 10V6.875H13.75C14.095 6.875 14.375 6.595 14.375 6.25C14.375 5.905 14.095 5.625 13.75 5.625H12.5C12.155 5.625 11.875 5.905 11.875 6.25V10C11.875 10.345 12.155 10.625 12.5 10.625C12.845 10.625 13.125 10.345 13.125 10ZM9.375 6.25V7.5C9.375 7.845 9.655 8.125 10 8.125C10.345 8.125 10.625 7.845 10.625 7.5V6.25C10.625 5.905 10.345 5.625 10 5.625C9.655 5.625 9.375 5.905 9.375 6.25ZM8.125 3.75C8.125 3.405 7.845 3.125 7.5 3.125H3.75C3.405 3.125 3.125 3.405 3.125 3.75V7.5C3.125 7.845 3.405 8.125 3.75 8.125H7.5C7.845 8.125 8.125 7.845 8.125 7.5V3.75ZM6.25 0.625H2.5C1.46438 0.625 0.625 1.46438 0.625 2.5V6.25C0.625 6.595 0.905 6.875 1.25 6.875C1.595 6.875 1.875 6.595 1.875 6.25V2.5C1.875 2.155 2.155 1.875 2.5 1.875H6.25C6.595 1.875 6.875 1.595 6.875 1.25C6.875 0.905 6.595 0.625 6.25 0.625ZM6.875 4.375V6.875H4.375V4.375H6.875ZM13.75 1.875H17.5C17.845 1.875 18.125 2.155 18.125 2.5V6.25C18.125 6.595 18.405 6.875 18.75 6.875C19.095 6.875 19.375 6.595 19.375 6.25V2.5C19.375 1.46438 18.5356 0.625 17.5 0.625H13.75C13.405 0.625 13.125 0.905 13.125 1.25C13.125 1.595 13.405 1.875 13.75 1.875ZM10 4.375H15.625V6.25C15.625 6.595 15.905 6.875 16.25 6.875C16.595 6.875 16.875 6.595 16.875 6.25V3.75C16.875 3.405 16.595 3.125 16.25 3.125H10C9.655 3.125 9.375 3.405 9.375 3.75C9.375 4.095 9.655 4.375 10 4.375Z" fill="white"/>
</svg>
