<svg width="40" height="40" viewBox="0 0 40 40" fill="none" xmlns="http://www.w3.org/2000/svg">
<rect opacity="0.1" width="40" height="40" rx="10" fill="#132D46"/>
<path fill-rule="evenodd" clip-rule="evenodd" d="M11 14C11 13.4477 11.4477 13 12 13H28C28.5523 13 29 13.4477 29 14C29 14.5523 28.5523 15 28 15H12C11.4477 15 11 14.5523 11 14ZM11 20C11 19.4477 11.4477 19 12 19H22C22.5523 19 23 19.4477 23 20C23 20.5523 22.5523 21 22 21H12C11.4477 21 11 20.5523 11 20ZM11 26C11 25.4477 11.4477 25 12 25H17C17.5523 25 18 25.4477 18 26C18 26.5523 17.5523 27 17 27H12C11.4477 27 11 26.5523 11 26Z" fill="#132D46"/>
</svg>
