<svg width="40" height="40" viewBox="0 0 40 40" fill="none" xmlns="http://www.w3.org/2000/svg">
<g clip-path="url(#clip0_550_5939)">
<path d="M34.5273 7.16414L32.7363 5.37313V0L27.1642 5.77117L26.7662 10.3483L20.9951 16.1195C20.597 16.1195 20.398 16.1195 20.0001 16.1195C17.811 16.1195 16.02 17.9105 16.02 20.0995C16.02 22.2886 17.811 24.0796 20.0001 24.0796C22.1891 24.0796 23.9801 22.2886 23.9801 20.0995C23.9801 19.7016 23.9801 19.5025 23.7812 19.1045L29.5523 13.3334L34.1294 12.9353L39.9006 7.16414H34.5273Z" fill="#FFC000"/>
<path d="M30.7463 15.1243H30.5473L27.7612 18.1094C27.9602 18.7064 27.9602 19.5025 27.9602 20.0995C27.9602 24.4776 24.3781 28.0597 19.9999 28.0597C15.6218 28.0597 12.0397 24.4776 12.0397 20.0995C12.0397 15.7214 15.6219 12.1393 20 12.1393C20.796 12.1393 21.3931 12.3382 21.9901 12.3382L24.9752 9.35316V9.15418C23.3831 8.55715 21.7911 8.15918 20 8.15918C13.4328 8.15918 8.05969 13.5323 8.05969 20.0995C8.05969 26.6667 13.4328 32.0397 20 32.0397C26.5672 32.0397 31.9403 26.6666 31.9403 20.0994C31.9403 18.3084 31.5423 16.7164 30.7463 15.1243Z" fill="#FFC000"/>
<path d="M38.1094 11.9403L35.1244 14.7264C35.5224 16.3184 35.9204 18.1095 35.9204 20.0995C35.9204 28.8558 28.7562 36.0199 20 36.0199C11.2437 36.0199 4.0796 28.8557 4.0796 20.0995C4.0796 11.3433 11.2437 4.17913 20 4.17913C21.791 4.17913 23.5821 4.57718 25.3731 5.17413V4.97515L28.3582 1.99007C25.7712 0.796006 22.9851 0.198975 20 0.198975C9.05467 0.198975 0.0995178 9.15421 0.0995178 20.0995C0.0995178 31.0448 9.05467 40 20 40C30.9453 40 39.9005 31.0448 39.9005 20.0995C39.9005 17.1144 39.3035 14.3284 38.1094 11.9403Z" fill="#FFC000"/>
</g>
<defs>
<clipPath id="clip0_550_5939">
<rect width="40" height="40" fill="white"/>
</clipPath>
</defs>
</svg>
