<svg width="40" height="40" viewBox="0 0 40 40" fill="none" xmlns="http://www.w3.org/2000/svg">
<g clip-path="url(#clip0_563_8062)">
<path d="M0 13.3333V11.6667C0 7.07167 3.73833 3.33333 8.33333 3.33333H10V1.66667C10 0.746667 10.745 0 11.6667 0C12.5883 0 13.3333 0.746667 13.3333 1.66667V3.33333H26.6667V1.66667C26.6667 0.746667 27.4117 0 28.3333 0C29.255 0 30 0.746667 30 1.66667V3.33333H31.6667C36.2617 3.33333 40 7.07167 40 11.6667V13.3333H0ZM40 16.6667V31.6667C40 36.2617 36.2617 40 31.6667 40H8.33333C3.73833 40 0 36.2617 0 31.6667V16.6667H40ZM29.72 21.92C29.08 21.2583 28.0267 21.2383 27.3633 21.8767L19.44 29.5133C18.8133 30.14 17.7617 30.1867 17.0417 29.47L13.245 25.9417C12.5733 25.3167 11.52 25.3517 10.89 26.0283C10.2633 26.7017 10.3017 27.7567 10.9767 28.3833L14.73 31.87C15.6733 32.815 16.93 33.335 18.265 33.335C19.6 33.335 20.8583 32.815 21.7783 31.8917L29.6783 24.2783C30.34 23.64 30.36 22.5817 29.72 21.92Z" fill="white"/>
</g>
<defs>
<clipPath id="clip0_563_8062">
<rect width="40" height="40" fill="white"/>
</clipPath>
</defs>
</svg>
