<svg width="40" height="40" viewBox="0 0 40 40" fill="none" xmlns="http://www.w3.org/2000/svg">
<g clip-path="url(#clip0_563_8058)">
<path d="M9.60126 8.5H21.5775V9.375C21.5775 9.58963 21.5352 9.80216 21.4531 10.0004C21.371 10.1987 21.2506 10.3789 21.0988 10.5307C20.947 10.6824 20.7669 10.8028 20.5686 10.885C20.3703 10.9671 20.1578 11.0094 19.9431 11.0094H11.2356C10.8022 11.0094 10.3865 10.8372 10.08 10.5307C9.77345 10.2242 9.60126 9.80846 9.60126 9.375V8.5Z" fill="white"/>
<path d="M16.685 2.96631H14.4937C14.056 2.96631 13.7012 3.32112 13.7012 3.75881V4.10943C13.7012 4.54712 14.056 4.90193 14.4937 4.90193H16.685C17.1227 4.90193 17.4775 4.54712 17.4775 4.10943V3.75881C17.4775 3.32112 17.1227 2.96631 16.685 2.96631Z" fill="white"/>
<path d="M16.8706 -0.0893555H14.3081C13.69 -0.0893555 13.078 0.032396 12.507 0.268946C11.9359 0.505497 11.4171 0.852212 10.9801 1.28929C10.5431 1.72638 10.1964 2.24526 9.95993 2.81632C9.72346 3.38738 9.60179 3.99943 9.60187 4.61752V7.25002H21.5769V4.61752C21.577 3.99943 21.4553 3.38738 21.2188 2.81632C20.9823 2.24526 20.6357 1.72638 20.1987 1.28929C19.7616 0.852212 19.2428 0.505497 18.6718 0.268946C18.1007 0.032396 17.4887 -0.0893555 16.8706 -0.0893555ZM18.7269 4.10939C18.7264 4.65041 18.5115 5.16916 18.1292 5.55201C17.7469 5.93486 17.2285 6.15057 16.6875 6.15189H14.5C13.9585 6.15123 13.4394 5.93583 13.0565 5.55293C12.6736 5.17003 12.4582 4.6509 12.4575 4.10939V3.75877C12.4581 3.21835 12.6727 2.70016 13.0542 2.31744C13.4358 1.93471 13.9533 1.71858 14.4937 1.71627H16.6812C17.2228 1.71677 17.742 1.93212 18.125 2.31505C18.5079 2.69799 18.7232 3.21722 18.7237 3.75877L18.7269 4.10939Z" fill="white"/>
<path d="M19.9431 12.2594H11.2356C10.6642 12.26 10.1056 12.0895 9.63187 11.77C9.93124 15.3138 12.4831 18.0825 15.5894 18.0825C18.6956 18.0825 21.2469 15.3144 21.5462 11.77C21.0727 12.0895 20.5144 12.26 19.9431 12.2594Z" fill="white"/>
<path d="M22.6625 28.0263C23.0437 28.0263 23.4094 27.8748 23.6789 27.6053C23.9485 27.3357 24.1 26.97 24.1 26.5888V17.4407H21.225V26.59C21.2253 26.9711 21.3769 27.3364 21.6465 27.6057C21.916 27.875 22.2814 28.0263 22.6625 28.0263ZM22.0375 24.3219H23.2875V26.2238H22.0375V24.3219Z" fill="white"/>
<path d="M15.5887 20.425C16.0074 20.4263 16.421 20.334 16.7994 20.1551C17.1779 19.9761 17.5116 19.715 17.7762 19.3906L18.2875 18.7656H12.8937L13.405 19.3906C13.6692 19.7145 14.0024 19.9754 14.3801 20.1543C14.7579 20.3332 15.1708 20.4257 15.5887 20.425Z" fill="white"/>
<path d="M19.0531 33.8045L21.75 31.1095L23.9025 28.957C23.5213 29.1632 23.0952 29.2722 22.6619 29.2745C22.0517 29.2734 21.46 29.0647 20.9842 28.6827C20.5084 28.3007 20.1767 27.7681 20.0438 27.1726H11.1337C11.0008 27.7681 10.6691 28.3007 10.1933 28.6827C9.71747 29.0647 9.12582 29.2734 8.51563 29.2745C8.00568 29.2738 7.50669 29.1265 7.07812 28.8501V34.9051H18.3125C18.4873 34.4946 18.7386 34.121 19.0531 33.8045Z" fill="white"/>
<path d="M26.6644 26.1976L26.9419 25.6676C26.7541 24.6484 26.8155 23.599 27.1207 22.6087C27.426 21.6184 27.9661 20.7166 28.695 19.9801C28.3145 19.4396 27.8148 18.9938 27.2346 18.6771C26.6544 18.3605 26.0092 18.1814 25.3488 18.1538V27.5132L26.6644 26.1976Z" fill="white"/>
<path d="M1.92688 32.2039H5.82938V34.907H1.92688V32.2039Z" fill="white"/>
<path d="M1.92688 29.7744V30.9538H5.83V29.6125H1.92688V29.7744Z" fill="white"/>
<path d="M8.51563 28.0263C8.89687 28.0263 9.26251 27.8748 9.53209 27.6053C9.80167 27.3357 9.95313 26.97 9.95313 26.5888V17.4407H7.07812V26.59C7.07846 26.9711 7.23005 27.3364 7.4996 27.6057C7.76915 27.875 8.13459 28.0263 8.51563 28.0263ZM7.89063 24.3219H9.14062V26.2238H7.89063V24.3219Z" fill="white"/>
<path d="M1.92688 22.4556V28.3625H5.83001V18.1619C4.76185 18.2637 3.77003 18.7601 3.04828 19.5541C2.32653 20.3481 1.9267 21.3826 1.92688 22.4556Z" fill="white"/>
<path d="M19.9763 18.6726L18.7407 20.1826C18.3587 20.6493 17.8778 21.0254 17.3328 21.2836C16.7878 21.5418 16.1922 21.6758 15.5891 21.6758C14.986 21.6758 14.3904 21.5418 13.8454 21.2836C13.3004 21.0254 12.8195 20.6493 12.4375 20.1826L11.2019 18.6726V25.9226H19.9763V18.6726Z" fill="white"/>
<path d="M21.75 32.8787L19.9375 34.6912C19.7253 34.9034 19.5569 35.1554 19.4421 35.4326C19.3272 35.7099 19.2681 36.0071 19.2681 36.3072C19.2681 36.6073 19.3272 36.9045 19.4421 37.1817C19.5569 37.459 19.7253 37.7109 19.9375 37.9231C20.1497 38.1353 20.4015 38.3037 20.6787 38.4186C20.956 38.5334 21.2531 38.5925 21.5532 38.5925C21.8532 38.5925 22.1503 38.5334 22.4276 38.4186C22.7048 38.3037 22.9566 38.1353 23.1688 37.9231L23.7382 37.3537L29.92 31.1719L26.6875 27.9375L21.75 32.8787ZM21.8856 36.5963C21.7443 36.5962 21.6062 36.5543 21.4887 36.4758C21.3712 36.3973 21.2796 36.2857 21.2256 36.1551C21.1715 36.0245 21.1574 35.8809 21.185 35.7423C21.2127 35.6037 21.2808 35.4764 21.3807 35.3765C21.4807 35.2766 21.608 35.2086 21.7467 35.1811C21.8853 35.1537 22.0289 35.1679 22.1595 35.2221C22.29 35.2762 22.4015 35.3679 22.4799 35.4854C22.5584 35.603 22.6001 35.7412 22.6 35.8825C22.6 35.9762 22.5816 36.069 22.5457 36.1556C22.5098 36.2422 22.4573 36.3209 22.391 36.3872C22.3247 36.4535 22.246 36.5061 22.1594 36.5419C22.0728 36.5778 21.98 36.5962 21.8863 36.5963H21.8856Z" fill="white"/>
<path d="M38.3682 23.0837L35.125 26.33L32.3613 25.5L31.5307 22.7393L34.7806 19.4931C33.9519 19.2518 33.0762 19.2195 32.2319 19.3991C31.3877 19.5787 30.601 19.9646 29.9422 20.5224C29.2835 21.0802 28.7731 21.7925 28.4568 22.5956C28.1405 23.3988 28.028 24.2678 28.1294 25.125L32.7344 29.7293C33.5914 29.831 34.4602 29.7189 35.2633 29.4029C36.0664 29.087 36.7787 28.5771 37.3366 27.9187C37.8946 27.2603 38.2808 26.474 38.4608 25.63C38.6408 24.786 38.609 23.9106 38.3682 23.0818V23.0837Z" fill="white"/>
<path d="M27.568 27.0559L27.9264 26.6975L31.1578 29.929L30.7994 30.2873L27.568 27.0559Z" fill="white"/>
</g>
<defs>
<clipPath id="clip0_563_8058">
<rect width="40" height="40" fill="white"/>
</clipPath>
</defs>
</svg>
