<svg width="36" height="30" viewBox="0 0 36 30" fill="none" xmlns="http://www.w3.org/2000/svg">
<path fill-rule="evenodd" clip-rule="evenodd" d="M18.4552 0.391755C15.6125 0.297089 12.7405 1.07264 10.261 2.72776C7.47607 4.58864 5.52985 7.33664 4.6334 10.4086C4.38585 10.3784 4.0894 10.3918 3.7374 10.4913C2.42318 10.8642 1.43474 11.9411 0.990292 12.8895C0.413847 14.1255 0.170736 15.7602 0.427181 17.4478C0.681847 19.13 1.39251 20.5166 2.2814 21.3775C3.17296 22.2389 4.17963 22.5189 5.17963 22.3086C6.66851 21.9909 7.40674 21.7531 7.19829 20.366L6.18896 13.642C6.39251 10.0029 8.27651 6.57709 11.4276 4.47042C15.6454 1.65309 21.1752 1.83353 25.1983 4.92198C27.997 7.06776 29.6218 10.2829 29.8094 13.658L29.1036 18.3615C27.5294 22.6695 23.6267 25.6535 19.1107 26.0771H16.1036C15.3276 26.0771 14.7027 26.702 14.7027 27.4771V28.2158C14.7027 28.9913 15.3276 29.6162 16.1036 29.6162H19.8952C20.6707 29.6162 21.293 28.9913 21.293 28.2158V27.8295C24.6983 26.9984 27.6707 24.9055 29.6063 21.9869L30.821 22.3091C31.8094 22.5655 32.8281 22.2389 33.7192 21.378C34.6081 20.5166 35.3183 19.1304 35.5734 17.4482C35.8307 15.7606 35.5805 14.1286 35.0107 12.89C34.4387 11.6513 33.5867 10.8646 32.6032 10.5824C32.1912 10.4638 31.7441 10.4202 31.3605 10.4086C30.5498 7.63087 28.881 5.10464 26.4756 3.2602C24.1107 1.44553 21.2978 0.485089 18.4552 0.391755Z" fill="white"/>
<path fill-rule="evenodd" clip-rule="evenodd" d="M22.893 12.4887C23.8952 12.4887 24.7076 13.3011 24.7098 14.306C24.7076 15.3082 23.8952 16.1229 22.893 16.1229C21.8881 16.1229 21.0734 15.3082 21.0734 14.306C21.0734 13.3016 21.8885 12.4887 22.893 12.4887ZM17.9996 12.4887C19.0041 12.4887 19.8165 13.3011 19.8165 14.306C19.8165 15.3082 19.0041 16.1229 17.9996 16.1229C16.9943 16.1229 16.1818 15.3082 16.1818 14.306C16.1818 13.3016 16.9943 12.4887 17.9996 12.4887ZM13.1081 12.4887C14.1103 12.4887 14.925 13.3011 14.925 14.306C14.925 15.3082 14.1103 16.1229 13.1081 16.1229C12.1036 16.1229 11.2907 15.3082 11.2907 14.306C11.2907 13.3016 12.1036 12.4887 13.1081 12.4887ZM17.9996 4.68335C12.6707 4.68335 8.37651 8.83624 8.37651 14.306C8.37651 16.9331 9.36984 19.2549 10.9881 20.9585L10.4138 23.5327C10.2245 24.3798 10.8121 24.9496 11.5734 24.5256L14.0872 23.1233C15.2818 23.642 16.6032 23.9287 17.9996 23.9287C23.3303 23.9287 27.6218 19.7785 27.6218 14.306C27.6218 8.83624 23.3303 4.68335 17.9996 4.68335Z" fill="white"/>
</svg>
