<svg width="40" height="40" viewBox="0 0 40 40" fill="none" xmlns="http://www.w3.org/2000/svg">
<path d="M13.28 2.71994H9.68001C8.96001 2.71994 8.40001 3.27994 8.40001 3.99994V4.87994C7.60001 4.79994 6.80001 4.63994 6.00001 4.55994V2.39994C6.00001 1.83994 5.60001 1.43994 5.04001 1.43994H3.68001C3.12001 1.43994 2.64001 1.83994 2.64001 2.39994V4.63994C2.08001 4.55994 1.60001 5.03994 1.60001 5.59994V20.8799C1.60001 22.3199 2.72001 23.4399 4.16001 23.4399H9.20001L9.36001 22.9599C9.92001 21.4399 11.2 20.2399 12.8 19.9199L17.76 18.7199L18 18.4799V7.35994C17.92 4.79994 15.84 2.71994 13.28 2.71994ZM9.76 18.3999C8.40001 18.3999 7.36001 17.2799 7.36001 15.9999C7.36001 14.6399 9.76 11.3599 9.76 11.3599C9.76 11.3599 12.16 14.6399 12.16 15.9999C12.24 17.2799 11.12 18.3999 9.76 18.3999ZM15.44 8.71994C15.44 9.11994 15.04 9.51994 14.64 9.51994C14.24 9.51994 13.84 9.11994 13.84 8.71994V7.35994C13.84 7.03994 13.6 6.79994 13.28 6.79994H12.32C11.92 6.79994 11.52 6.47994 11.52 5.99994C11.52 5.59994 11.92 5.19994 12.32 5.19994H13.28C14.48 5.19994 15.44 6.15994 15.44 7.35994V8.71994Z" fill="white"/>
<path d="M18.4 34.8C17.2 34.8 16.24 33.84 16.24 32.64C16.24 31.44 17.2 30.48 18.4 30.48C19.6 30.48 20.56 31.44 20.56 32.64C20.56 33.76 19.6 34.8 18.4 34.8Z" fill="white"/>
<path d="M38.4 10.96H29.04C28.08 10.96 27.28 11.36 26.64 12L18.48 20.16L13.12 21.52C12.08 21.76 11.2 22.56 10.8 23.6L9.2 28.16C8.32 28.16 7.76 28.96 8 29.84L8.56 31.76C8.72 32.32 9.2 32.64 9.76 32.64H12.4C12.4 36 15.12 38.64 18.4 38.64C21.76 38.64 24.4 35.92 24.4 32.64H38.4V21.04H32.96V14.4H38.4V10.96ZM18.4 37.04C16 37.04 14 35.04 14 32.64C14 30.24 16 28.24 18.4 28.24C20.88 28.24 22.8 30.24 22.8 32.64C22.88 35.04 20.88 37.04 18.4 37.04ZM33.84 24.8C33.84 25.2 33.44 25.6 33.04 25.6H32.64C32.24 25.6 31.84 25.2 31.84 24.8C31.84 24.4 32.24 24 32.64 24H33.04C33.44 24 33.84 24.32 33.84 24.8ZM31.36 21.04H25.6C24.4 21.04 23.84 19.6 24.64 18.8L28.72 14.8C28.96 14.56 29.28 14.4 29.68 14.4H31.28L31.36 21.04Z" fill="white"/>
</svg>
