<svg width="172" height="22" viewBox="0 0 172 22" fill="none" xmlns="http://www.w3.org/2000/svg">
<path d="M0.788185 13.7989C0.248432 13.9159 -0.0942919 14.4483 0.0226902 14.9881C0.139672 15.5278 0.672062 15.8705 1.21181 15.7535L0.788185 13.7989ZM1.21181 15.7535C31.3655 9.21825 107.532 -2.34026 170.905 3.68783L171.095 1.69682C107.43 -4.359 31.0356 7.24332 0.788185 13.7989L1.21181 15.7535Z" fill="#FFC000"/>
<path d="M0.788185 20.0228C0.248432 20.1398 -0.0942919 20.6722 0.0226902 21.2119C0.139672 21.7517 0.672062 22.0944 1.21181 21.9774L0.788185 20.0228ZM1.21181 21.9774C31.3655 15.4421 107.532 3.88362 170.905 9.91171L171.095 7.9207C107.43 1.86488 31.0356 13.4672 0.788185 20.0228L1.21181 21.9774Z" fill="#FFC000"/>
</svg>
