<?xml version="1.0" encoding="utf-8"?>
<!-- Generator: Adobe Illustrator 27.3.1, SVG Export Plug-In . SVG Version: 6.00 Build 0)  -->
<svg version="1.1" id="Layer_1" xmlns="http://www.w3.org/2000/svg" xmlns:xlink="http://www.w3.org/1999/xlink" x="0px" y="0px"
	 viewBox="0 0 200 200" style="enable-background:new 0 0 200 200;" xml:space="preserve">
<style type="text/css">
	.st0{fill-rule:evenodd;clip-rule:evenodd;fill:#FDC010;}
	.st1{fill:#1C2431;}
	.st2{fill-rule:evenodd;clip-rule:evenodd;fill:#1C2431;}
	.st3{fill:#FDC010;}
</style>
<g>
	<g>
		<g>
			<g>
				<path class="st0" d="M113.48,55.6c0.69-4.39-0.04-7.93-2.18-10.61c-1.99-2.5-4.66-4.12-7.52-4.87l-1.91,9.94h-0.09l0.95-10.42
					h-5.47l0.95,10.42h-0.09l-1.9-9.93c-2.82,0.74-5.44,2.32-7.42,4.73c-2.22,2.7-2.98,6.28-2.28,10.74H113.48z"/>
			</g>
			<g>
				<path class="st0" d="M113.99,55.6H86.01c-0.93,0-1.69-0.76-1.69-1.69v0c0-0.93,0.76-1.69,1.69-1.69h27.98
					c0.93,0,1.69,0.76,1.69,1.69v0C115.68,54.84,114.92,55.6,113.99,55.6z"/>
			</g>
			<g>
				<path class="st1" d="M92.55,104.32c-0.41-3.95,1.84-8.14,4.08-11.26c0.12-0.16,0.38,0,0.27,0.18c-1.24,2.1-2.27,4.34-2.81,6.72
					c-0.33,1.36-0.43,2.81-0.16,4.16C94.08,105.08,92.68,105.29,92.55,104.32L92.55,104.32z"/>
			</g>
			<g>
				<path class="st1" d="M94.22,107.88c-0.29-0.28-0.54-0.6-0.77-0.93c-0.45-0.71,0.56-1.4,1.05-0.72c0.17,0.34,0.29,0.71,0.5,1.04
					C95.29,107.78,94.63,108.29,94.22,107.88L94.22,107.88z"/>
			</g>
			<g>
				<g>
					<path class="st2" d="M130.21,80.14c-4.65-1.99-9.39,2.12-13.7,0.52c3.1-0.55,5.95-3.47,5.56-7.11
						c-0.25-2.24-1.55-4.3-2.47-6.08c-3.13-6.05,3.96-5.53,1.21-6.35c-3.6-1.08-5.61,1.78-4.4,5.15c0.57,1.58,0.96,3.07,1.18,4.5
						c0.67,4.73-4.44,6.8-6.74,3.58c-2.27-3.89-1.98-3.5,0.87-7.23c1.22-1.33,1.32-2.87,0.31-4.64c-0.6-0.86-1.35-1.65-2.1-2.16
						c0.81,0.07,1.54,0.3,2.15,0.67c0.54-1.53,0.94-2.98,1.21-4.34L86.52,55.6c0.26,1.67,0.73,3.46,1.4,5.38
						c0.62-0.38,1.35-0.6,2.15-0.67c-0.75,0.51-1.5,1.3-2.1,2.16c-1.01,1.77-0.91,3.31,0.31,4.64c2.85,3.74,3.14,3.35,0.87,7.23
						c-2.3,3.22-7.4,1.14-6.74-3.58c0.22-1.42,0.61-2.91,1.18-4.5c1.21-3.37-0.8-6.23-4.4-5.15c-2.76,0.82,4.34,0.29,1.21,6.35
						c-0.92,1.78-2.23,3.85-2.47,6.08c-0.39,3.64,2.46,6.55,5.56,7.11c-4.31,1.6-9.05-2.5-13.71-0.52
						c-5.37,2.29-3.25,9.57,1.71,10.23c2.17,0.29,0.83-0.85-0.45-1.73c-2.66-1.83-1.33-6.35,3.69-4.87c3.87,1.14,9,4.49,14.21,2.02
						c-2.07,2.61-3.84,6.32-3.94,10.32c-0.41,17.4,13.53,16.35,14.99,16.35c1.45,0,15.28,1.05,14.99-16.35
						c-0.08-4.56-1.87-7.72-3.94-10.32c5.21,2.47,10.34-0.87,14.21-2.02c5.03-1.49,6.36,3.04,3.69,4.87
						c-1.28,0.88-2.62,2.02-0.45,1.73C133.47,89.7,135.58,82.42,130.21,80.14z M108.7,64.11c0.75,0,1.36,0.61,1.36,1.36
						c0,0.75-0.61,0.29-1.36,0.29c-0.75,0-1.36,0.47-1.36-0.29C107.34,64.72,107.95,64.11,108.7,64.11z M103.33,68.97
						c0,1.13-1.49,2.57-3.33,2.57c-1.84,0-3.33-1.44-3.33-2.57C97.9,69.67,102.19,69.76,103.33,68.97z M89.94,65.46
						c0-0.75,0.61-1.36,1.36-1.36c0.75,0,1.36,0.61,1.36,1.36c0,0.75-0.61,0.29-1.36,0.29C90.55,65.75,89.94,66.21,89.94,65.46z
						 M100,111.99c-7.75,0-9.96-6.42-8.81-11.73c1.77-8.1,8.81-14.49,8.81-14.49s7.04,6.39,8.8,14.49
						C109.96,105.57,107.74,111.99,100,111.99z"/>
				</g>
			</g>
			<path class="st2" d="M114.1,82.84c0,0,10.73,4.45,11.69,11.51c0.96,7.06,1.69,9.63,4.85,11.17c3.16,1.54-3.23,0.89-5.07-3.08
				c-1.84-3.97-4.7-12.38-12.94-13.97c-7.23-1.39-6.25-8.93-1.84-7.37C115.2,82.66,114.1,82.84,114.1,82.84z"/>
			<path class="st2" d="M85.9,82.84c0,0-10.73,4.45-11.69,11.51c-0.96,7.06-1.69,9.63-4.85,11.17c-3.16,1.54,3.23,0.89,5.07-3.08
				c1.84-3.97,4.7-12.38,12.94-13.97c7.23-1.39,6.25-8.93,1.84-7.37C84.8,82.66,85.9,82.84,85.9,82.84z"/>
		</g>
	</g>
	<g>
		<path class="st3" d="M33.56,126.31c2.14,0,3.85,0.7,5.13,2.11c1.21,1.33,1.82,3.02,1.82,5.09s-0.6,3.76-1.8,5.09
			c-1.27,1.41-2.98,2.12-5.15,2.13H19.53c-1.56,0-2.53-0.45-2.93-1.36c-0.07-0.16-0.1-0.34-0.1-0.52c0-0.59,0.36-1.24,1.08-1.98
			c0.61,0.64,1.47,0.97,2.55,0.97h0.42v-14.61c0-1.55,0.78-2.32,2.35-2.32c0.91,0,1.83,0.14,2.75,0.42
			c-0.36,1.27-0.53,2.81-0.53,4.63v4.87c0.47-0.5,0.95-0.96,1.43-1.38c1.11-0.96,2.26-1.71,3.43-2.25
			C31.18,126.65,32.37,126.35,33.56,126.31z M33.54,137.85c1.61,0,2.41-1.44,2.41-4.33c0-1.27-0.2-2.29-0.59-3.06
			c-0.42-0.85-1.03-1.27-1.82-1.27c-0.71,0-1.57,0.25-2.57,0.74c-2.06,1.01-4.01,2.85-5.85,5.51v2.41H33.54z"/>
		<path class="st3" d="M59.68,140.73h-3.17c-0.01,2.05-0.63,3.73-1.85,5.06c-1.28,1.4-2.97,2.11-5.09,2.11H47.7
			c-1.56,0-2.53-0.46-2.93-1.37c-0.07-0.16-0.1-0.34-0.1-0.52c0-0.58,0.36-1.23,1.08-1.96c0.63,0.64,1.5,0.97,2.61,0.97h1.18
			c1.59,0,2.39-1.43,2.41-4.28h-2.42c-2.13,0-3.84-0.71-5.12-2.13c-1.21-1.34-1.82-3.04-1.82-5.1c0-2.06,0.61-3.75,1.83-5.08
			c1.29-1.4,2.99-2.11,5.12-2.11c2.15,0,3.87,0.7,5.15,2.11c1.21,1.33,1.82,3.02,1.82,5.08v4.35h3.17V140.73z M51.95,133.52
			c0-1.27-0.2-2.29-0.59-3.07c-0.42-0.85-1.03-1.27-1.82-1.27c-0.77,0-1.37,0.42-1.8,1.27c-0.39,0.79-0.59,1.81-0.59,3.07
			c0,2.88,0.8,4.33,2.39,4.33h2.41V133.52z"/>
		<path class="st3" d="M59.1,137.85h6.44v2.88H59.1V137.85z"/>
		<path class="st3" d="M64.96,137.85h6.44v2.88h-6.44V137.85z"/>
		<path class="st3" d="M70.81,137.85h6.44v2.88h-6.44V137.85z"/>
		<path class="st3" d="M76.66,137.85h6.44v2.88h-6.44V137.85z"/>
		<path class="st3" d="M82.52,137.85h6.44v2.88h-6.44V137.85z"/>
		<path class="st3" d="M88.37,137.85h6.44v2.88h-6.44V137.85z"/>
		<path class="st3" d="M94.23,137.85h6.44v2.88h-6.44V137.85z"/>
		<path class="st3" d="M100.08,137.85h6.44v2.88h-6.44V137.85z"/>
		<path class="st3" d="M105.93,137.85h6.44v2.88h-6.44V137.85z"/>
		<path class="st3" d="M111.79,137.85h6.44v2.88h-6.44V137.85z"/>
		<path class="st3" d="M128.48,137.85v2.88h-0.74c-1.87,0-3.43-0.56-4.66-1.67c-1.24,1.11-2.79,1.67-4.66,1.67h-0.74v-2.88h0.72
			c1.6,0,2.39-1.44,2.39-4.31v-4.9c0-1.55,0.78-2.32,2.34-2.32c0.92,0,1.85,0.14,2.77,0.42c-0.37,1.27-0.55,2.82-0.55,4.64v2.16
			c0.01,2.87,0.81,4.31,2.39,4.31H128.48z M121.39,147.21c-0.46-0.46-0.69-1.05-0.69-1.76c0-0.68,0.25-1.26,0.74-1.73
			c0.48-0.47,1.05-0.71,1.7-0.71c0.64,0,1.2,0.24,1.66,0.71c0.46,0.47,0.69,1.05,0.69,1.73c0,0.69-0.25,1.27-0.74,1.74
			c-0.49,0.47-1.05,0.71-1.67,0.71C122.41,147.9,121.85,147.67,121.39,147.21z"/>
		<path class="st3" d="M127.98,137.85h6.44v2.88h-6.44V137.85z"/>
		<path class="st3" d="M160.58,137.85v2.88h-1.33c-1.72,0-3.18-0.48-4.38-1.44c-1.19,0.95-2.66,1.43-4.41,1.44h-16.78v-2.88h3.78
			v-14.61c0-1.55,0.78-2.32,2.35-2.32c0.91,0,1.83,0.14,2.75,0.42c-0.36,1.27-0.53,2.81-0.53,4.63v4.87
			c0.46-0.5,0.94-0.96,1.43-1.38c1.11-0.96,2.25-1.71,3.42-2.25c1.21-0.56,2.41-0.86,3.59-0.89c2.14,0,3.85,0.7,5.13,2.11
			c1.21,1.33,1.82,3.02,1.82,5.09c0,1.67-0.41,3.12-1.23,4.34H160.58z M150.44,137.85c1.61,0,2.41-1.44,2.41-4.33
			c0-1.27-0.2-2.29-0.59-3.06c-0.42-0.85-1.03-1.27-1.82-1.27c-0.72,0-1.58,0.25-2.57,0.74c-2.07,1.01-4.02,2.85-5.85,5.51v2.41
			H150.44z"/>
		<path class="st3" d="M159.86,140.73v-2.88h10.4c-0.26-1.02-0.39-2.13-0.39-3.34v-2.18c0-1.12-0.15-1.97-0.46-2.54
			c-0.27-0.48-0.81-0.72-1.61-0.72c-1.05,0-1.71,0.1-1.99,0.3c-0.44,0.33-0.72,0.99-0.82,2c-1.74-0.06-2.61-0.8-2.61-2.22
			c0-0.91,0.45-1.59,1.34-2.02c1.14-0.55,2.42-0.82,3.82-0.82c2.66,0,4.49,0.39,5.48,1.18c0.95,0.76,1.43,2.07,1.43,3.94v4.14
			c0,2.01,0.15,3.47,0.45,4.37c-0.71,0.53-1.52,0.79-2.44,0.79H159.86z M166.4,123.94c-0.46-0.46-0.69-1.05-0.69-1.77
			c0-0.67,0.25-1.24,0.74-1.72c0.48-0.47,1.04-0.71,1.69-0.71c0.64,0,1.2,0.24,1.66,0.71c0.46,0.47,0.69,1.04,0.69,1.72
			c0,0.7-0.24,1.29-0.72,1.76c-0.49,0.47-1.05,0.71-1.67,0.71C167.42,124.63,166.86,124.4,166.4,123.94z"/>
		<path class="st3" d="M183.43,118.23c0.05,0.11,0.07,0.21,0.07,0.32c0,0.11-0.02,0.21-0.07,0.32c-0.17,0.4-0.55,0.61-1.12,0.61
			h-2.87c-0.17,0-0.28,0.02-0.33,0.06c-0.14,0.08-0.22,0.21-0.26,0.4l-0.06,0.29l-0.04,0.19l-0.17-0.04l-0.29-0.06
			c-0.27-0.06-0.48-0.16-0.63-0.32c-0.14-0.16-0.22-0.38-0.22-0.63c0-0.52,0.26-0.92,0.78-1.21c0.17-0.1,0.35-0.17,0.52-0.22
			c-0.13-0.35-0.2-0.72-0.2-1.11c0-0.74,0.22-1.36,0.65-1.85c0.47-0.53,1.09-0.79,1.86-0.79c0.5,0.01,0.94,0.12,1.31,0.32
			c0.55,0.28,0.82,0.68,0.82,1.21c0,0.26-0.08,0.47-0.25,0.63c-0.14,0.15-0.36,0.26-0.63,0.32l-0.29,0.06l-0.17,0.03l-0.04-0.17
			l-0.06-0.29c-0.04-0.19-0.13-0.33-0.26-0.4c-0.07-0.04-0.19-0.06-0.38-0.06h-0.06c-0.36,0-0.53,0.34-0.53,1.01
			c0,0.66,0.17,0.99,0.52,0.99h1.12c0.12,0,0.22-0.02,0.27-0.07l0.22-0.23l0.12-0.13l0.13,0.13l0.22,0.22
			C183.26,117.9,183.37,118.06,183.43,118.23z M180.53,120.91c0.91,0,1.83,0.14,2.75,0.43c-0.37,1.26-0.55,2.8-0.55,4.63v12.44
			c0,1.55-0.78,2.32-2.34,2.32c-0.91,0-1.83-0.14-2.75-0.42c0.36-1.27,0.53-2.82,0.53-4.64v-12.44
			C178.18,121.68,178.96,120.91,180.53,120.91z"/>
	</g>
	<g>
		<path class="st1" d="M48.42,155.4c0,0.73-0.09,1.41-0.26,2.01c-0.17,0.61-0.42,1.13-0.74,1.57c-0.32,0.44-0.71,0.78-1.17,1.02
			c-0.46,0.24-0.97,0.36-1.54,0.36c-0.58,0-1.1-0.12-1.55-0.37c-0.46-0.25-0.85-0.59-1.17-1.02c-0.32-0.44-0.57-0.95-0.74-1.55
			c-0.17-0.6-0.26-1.25-0.26-1.96c0-0.76,0.08-1.45,0.25-2.08c0.17-0.63,0.41-1.16,0.73-1.61c0.32-0.44,0.71-0.79,1.17-1.03
			c0.46-0.24,0.98-0.36,1.57-0.36c0.58,0,1.1,0.12,1.56,0.37c0.46,0.25,0.85,0.59,1.17,1.03c0.32,0.44,0.56,0.97,0.73,1.59
			C48.34,153.98,48.42,154.66,48.42,155.4z M47.71,155.44c0-0.71-0.07-1.34-0.22-1.88c-0.15-0.55-0.35-1.01-0.61-1.39
			c-0.26-0.38-0.58-0.66-0.95-0.85c-0.37-0.19-0.78-0.29-1.22-0.29c-0.44,0-0.84,0.1-1.21,0.29c-0.37,0.19-0.68,0.48-0.95,0.85
			c-0.26,0.37-0.47,0.83-0.62,1.37c-0.15,0.54-0.22,1.16-0.22,1.86c0,0.69,0.07,1.3,0.22,1.84c0.15,0.54,0.35,0.99,0.62,1.35
			c0.27,0.37,0.58,0.65,0.95,0.84c0.36,0.19,0.76,0.29,1.2,0.29s0.85-0.1,1.22-0.29c0.37-0.19,0.69-0.48,0.95-0.85
			c0.26-0.37,0.47-0.82,0.61-1.35C47.64,156.7,47.71,156.1,47.71,155.44z"/>
		<path class="st1" d="M63.53,160.17l-3.54-5.16l-1.18,1.31v3.85h-0.67v-9.61h0.67v4.84l4.3-4.84h0.82l-3.48,3.96l3.9,5.65H63.53z"
			/>
		<path class="st1" d="M78.97,160.17v-4.77h-4.91v4.77h-0.67v-9.61h0.67v4.22h4.91v-4.22h0.67v9.61H78.97z"/>
		<path class="st1" d="M92.34,151.18v8.99h-0.67v-8.99h-2.82v-0.62h6.32v0.62H92.34z"/>
		<path class="st1" d="M110.49,157.42c0,0.84-0.24,1.5-0.73,2c-0.48,0.5-1.25,0.74-2.29,0.74h-3.1v-9.61h2.93
			c0.52,0,0.96,0.06,1.33,0.18c0.37,0.12,0.67,0.29,0.9,0.49c0.23,0.21,0.4,0.45,0.51,0.73c0.11,0.28,0.16,0.59,0.16,0.91
			c0,0.47-0.1,0.9-0.31,1.29s-0.55,0.7-1.04,0.93c0.52,0.15,0.92,0.43,1.21,0.84C110.34,156.33,110.49,156.83,110.49,157.42z
			 M109.53,152.87c0-0.53-0.19-0.94-0.57-1.24c-0.38-0.3-0.96-0.45-1.75-0.45h-2.16v3.68h2.34c0.35,0,0.65-0.05,0.91-0.16
			c0.26-0.1,0.49-0.25,0.67-0.43c0.18-0.18,0.32-0.39,0.41-0.63C109.48,153.4,109.53,153.14,109.53,152.87z M109.77,157.42
			c0-0.67-0.19-1.17-0.58-1.48c-0.38-0.31-0.98-0.47-1.79-0.47h-2.36v4.07h2.46C109.02,159.55,109.77,158.84,109.77,157.42z"/>
		<path class="st1" d="M127.12,155.4c0,0.73-0.09,1.41-0.26,2.01c-0.17,0.61-0.42,1.13-0.74,1.57c-0.32,0.44-0.71,0.78-1.17,1.02
			c-0.46,0.24-0.97,0.36-1.54,0.36c-0.58,0-1.1-0.12-1.55-0.37c-0.46-0.25-0.85-0.59-1.17-1.02c-0.32-0.44-0.57-0.95-0.74-1.55
			c-0.17-0.6-0.26-1.25-0.26-1.96c0-0.76,0.08-1.45,0.25-2.08c0.17-0.63,0.41-1.16,0.73-1.61c0.32-0.44,0.71-0.79,1.17-1.03
			c0.46-0.24,0.98-0.36,1.57-0.36c0.58,0,1.1,0.12,1.56,0.37c0.46,0.25,0.85,0.59,1.17,1.03c0.32,0.44,0.56,0.97,0.73,1.59
			C127.04,153.98,127.12,154.66,127.12,155.4z M126.41,155.44c0-0.71-0.07-1.34-0.22-1.88c-0.15-0.55-0.35-1.01-0.61-1.39
			c-0.26-0.38-0.58-0.66-0.95-0.85c-0.37-0.19-0.78-0.29-1.22-0.29c-0.44,0-0.84,0.1-1.21,0.29c-0.37,0.19-0.68,0.48-0.95,0.85
			c-0.26,0.37-0.47,0.83-0.62,1.37c-0.15,0.54-0.22,1.16-0.22,1.86c0,0.69,0.07,1.3,0.22,1.84c0.15,0.54,0.35,0.99,0.62,1.35
			c0.27,0.37,0.58,0.65,0.95,0.84c0.36,0.19,0.76,0.29,1.2,0.29s0.85-0.1,1.22-0.29c0.37-0.19,0.69-0.48,0.95-0.85
			c0.26-0.37,0.47-0.82,0.61-1.35C126.33,156.7,126.41,156.1,126.41,155.44z"/>
		<path class="st1" d="M143.87,155.4c0,0.73-0.09,1.41-0.26,2.01c-0.17,0.61-0.42,1.13-0.74,1.57c-0.32,0.44-0.71,0.78-1.17,1.02
			c-0.46,0.24-0.97,0.36-1.54,0.36c-0.58,0-1.1-0.12-1.55-0.37c-0.46-0.25-0.85-0.59-1.17-1.02c-0.32-0.44-0.57-0.95-0.74-1.55
			c-0.17-0.6-0.26-1.25-0.26-1.96c0-0.76,0.08-1.45,0.25-2.08c0.17-0.63,0.41-1.16,0.73-1.61c0.32-0.44,0.71-0.79,1.17-1.03
			c0.46-0.24,0.98-0.36,1.57-0.36c0.58,0,1.1,0.12,1.56,0.37c0.46,0.25,0.85,0.59,1.17,1.03c0.32,0.44,0.56,0.97,0.73,1.59
			C143.79,153.98,143.87,154.66,143.87,155.4z M143.16,155.44c0-0.71-0.07-1.34-0.22-1.88c-0.15-0.55-0.35-1.01-0.62-1.39
			c-0.26-0.38-0.58-0.66-0.95-0.85c-0.37-0.19-0.78-0.29-1.22-0.29c-0.44,0-0.84,0.1-1.21,0.29c-0.37,0.19-0.68,0.48-0.95,0.85
			c-0.26,0.37-0.47,0.83-0.62,1.37c-0.15,0.54-0.22,1.16-0.22,1.86c0,0.69,0.07,1.3,0.22,1.84c0.15,0.54,0.35,0.99,0.62,1.35
			c0.27,0.37,0.58,0.65,0.95,0.84c0.36,0.19,0.76,0.29,1.2,0.29c0.44,0,0.85-0.1,1.22-0.29c0.37-0.19,0.69-0.48,0.95-0.85
			c0.26-0.37,0.47-0.82,0.62-1.35C143.08,156.7,143.16,156.1,143.16,155.44z"/>
		<path class="st1" d="M156.18,151.18v8.99h-0.67v-8.99h-2.82v-0.62H159v0.62H156.18z"/>
	</g>
</g>
</svg>
