<svg width="40" height="40" viewBox="0 0 40 40" fill="none" xmlns="http://www.w3.org/2000/svg">
<g clip-path="url(#clip0_563_8833)">
<path d="M29.1667 18.3334C23.1933 18.3334 18.3333 23.1934 18.3333 29.1667C18.3333 35.14 23.1933 40 29.1667 40C35.14 40 40 35.14 40 29.1667C40 23.1934 35.14 18.3334 29.1667 18.3334ZM29.1667 36.6667C28.4767 36.6667 27.9167 36.1067 27.9167 35.4167C27.9167 34.7267 28.4767 34.1667 29.1667 34.1667C29.8567 34.1667 30.4167 34.7267 30.4167 35.4167C30.4167 36.1067 29.8567 36.6667 29.1667 36.6667ZM31.6517 29.43C30.5617 30.2667 30.4167 31.0384 30.4167 32.0834C30.4167 32.7734 29.8567 33.3334 29.1667 33.3334C28.4767 33.3334 27.9167 32.7734 27.9167 32.0834C27.9167 30.2534 28.4683 28.7217 30.1283 27.4467C30.57 27.1084 30.8333 26.5567 30.8333 25.9734C30.8333 24.9767 30.085 24.1684 29.1667 24.1684C28.2483 24.1684 27.5 24.9784 27.5 25.9734C27.5 26.6634 26.94 27.2234 26.25 27.2234C25.56 27.2234 25 26.6634 25 25.9717C25 23.5984 26.87 21.6667 29.1667 21.6667C31.4633 21.6667 33.3333 23.5984 33.3333 25.9717C33.3333 27.3284 32.705 28.62 31.6517 29.43Z" fill="#FFC000"/>
<path d="M29.9667 0.183332C25.65 -0.450001 21.8333 0.583332 18.3333 3.33333C14.8333 0.583332 11.0167 -0.450001 6.69999 0.183332C5.24999 0.383332 4.16666 1.63333 4.16666 3.06667V21.35C4.16666 22.1667 4.51666 22.95 5.13332 23.5C5.74999 24.0667 6.59999 24.3333 7.43332 24.2333C10.0833 23.9333 12.65 24.4833 15.0167 25.8333C15.1333 25.8833 15.2333 25.95 15.35 26.0167C15.3667 25.95 15.3833 25.9 15.4 25.8333C15.5833 25.0667 15.8333 24.3167 16.15 23.6C13.8667 22.3167 11.4 21.65 8.84999 21.65C8.28332 21.65 7.73332 21.6833 7.14999 21.75C6.96666 21.7667 6.84999 21.6833 6.79999 21.6333C6.71666 21.5667 6.66666 21.4667 6.66666 21.35V3.06667C6.66666 2.86667 6.83332 2.68333 7.04999 2.65C10.8167 2.1 14.0167 3.03333 17.0833 5.55C17.2333 5.65 17.3667 5.78333 17.5167 5.9C17.9833 6.31667 18.6833 6.31667 19.15 5.9C19.3 5.78333 19.4333 5.65 19.5833 5.55C22.65 3.03333 25.85 2.11667 29.6167 2.65C29.8333 2.68333 30 2.86667 30 3.06667V15.0167C30.85 15.0667 31.6833 15.2 32.5 15.4V3.06667C32.5 1.63333 31.4167 0.383332 29.9667 0.183332Z" fill="#FFC000"/>
<path d="M15.4 25.8334C15.3833 25.9 15.3667 25.95 15.35 26.0167C15.1833 26.7667 15.0667 27.55 15.0167 28.3334H2.91667C1.31667 28.3334 0 27.0167 0 25.4167V6.25004C0 4.65004 1.3 3.35004 2.9 3.33337H5C5.68333 3.33337 6.25 3.88337 6.25 4.58337C6.25 5.26671 5.7 5.83337 5 5.83337H2.91667C2.68333 5.83337 2.5 6.03337 2.5 6.25004V25.4167C2.5 25.65 2.68333 25.8334 2.91667 25.8334H15.4Z" fill="#FFC000"/>
<path d="M36.6667 6.25004V17.15C35.8833 16.6667 35.05 16.25 34.1667 15.9167V6.25004C34.1667 6.01671 33.9833 5.83337 33.75 5.83337H31.6667C30.9833 5.83337 30.4167 5.26671 30.4167 4.58337C30.4167 3.90004 30.9833 3.33337 31.6667 3.33337H33.75C35.35 3.33337 36.6667 4.65004 36.6667 6.25004Z" fill="#FFC000"/>
<path d="M19.5833 5V18.75C18.6167 19.6333 17.7667 20.65 17.0833 21.7833V5C17.0833 4.31667 17.65 3.75 18.3333 3.75C19.0167 3.75 19.5833 4.31667 19.5833 5Z" fill="#FFC000"/>
</g>
<defs>
<clipPath id="clip0_563_8833">
<rect width="40" height="40" fill="white"/>
</clipPath>
</defs>
</svg>
